<?xml version="1.0" standalone="no"?>
<!DOCTYPE svg PUBLIC "-//W3C//DTD SVG 1.1//EN" "http://www.w3.org/Graphics/SVG/1.1/DTD/svg11.dtd" >
<!--
2013-9-30: Created.
-->
<svg>
<metadata>
Created by iconfont
</metadata>
<defs>

<font id="sp-iconfont" horiz-adv-x="1024" >
  <font-face
    font-family="sp-iconfont"
    font-weight="500"
    font-stretch="normal"
    units-per-em="1024"
    ascent="896"
    descent="-128"
  />
    <missing-glyph />
    
    <glyph glyph-name="risk2" unicode="&#59096;" d="M512-128a156.16 156.16 0 0 0-48.213333 7.68 904.533333 904.533333 0 0 0-220.16 97.706667C67.84 93.866667 64 248.746667 64 256V691.626667a85.333333 85.333333 0 0 0 81.493333 82.773333C251.733333 778.24 419.84 860.586667 469.333333 885.76a96 96 0 0 0 85.333334 0c48.64-25.173333 216.32-107.52 323.413333-111.36a85.333333 85.333333 0 0 0 81.92-82.773333V256c0-7.253333-3.84-162.56-180.48-279.04a860.16 860.16 0 0 0-219.306667-97.28A154.026667 154.026667 0 0 0 512-128z m-21.333333 88.746667a66.56 66.56 0 0 1 42.666666 0 813.653333 813.653333 0 0 1 197.546667 85.333333c139.093333 91.733333 143.786667 204.8 143.786667 209.493333V691.626667c-120.32 0-290.986667 83.2-358.826667 118.186666a8.106667 8.106667 0 0 1-7.68 0c-85.333333-42.666667-243.626667-116.48-359.68-120.32L149.333333 256c0-4.266667 4.693333-117.333333 142.08-207.786667a825.6 825.6 0 0 1 197.973334-85.333333zM554.666667 544l-93.44-147.2 170.666666-2.56h3.84a34.56 34.56 0 0 0 33.706667-34.133333 35.84 35.84 0 0 0-7.253333-20.053334l-188.16-244.906666a4.693333 4.693333 0 0 0-6.826667 0 4.693333 4.693333 0 0 0 0 5.973333l110.506667 222.72-180.48-2.56a38.4 38.4 0 0 0-38.4 37.546667 38.826667 38.826667 0 0 0 3.413333 15.786666v2.56l98.133333 217.6a53.333333 53.333333 0 1 0 97.28-42.666666c-2.986667-4.266667-2.986667-6.4-2.986666-8.106667z"  horiz-adv-x="1024" />

    
    <glyph glyph-name="share2" unicode="&#59097;" d="M512-128a512 512 0 0 0 0 1024 42.666667 42.666667 0 0 0 0-85.333333 426.666667 426.666667 0 1 1 422.826667-369.066667 42.666667 42.666667 0 0 0 85.333333 11.52A532.48 532.48 0 0 0 1024 384a512 512 0 0 0-512-512zM512 341.333333a42.666667 42.666667 0 0 0-42.666667 42.666667c0 186.88 49.92 359.68 410.453334 359.68a42.666667 42.666667 0 0 0 0-85.333333C606.293333 658.346667 554.666667 561.92 554.666667 384a42.666667 42.666667 0 0 0-42.666667-42.666667zM794.026667 554.666667a42.666667 42.666667 0 0 0-32.853334 69.546666l61.013334 73.386667-63.573334 63.573333a42.666667 42.666667 0 0 0 60.16 60.586667l91.306667-90.453333a42.666667 42.666667 0 0 0 2.56-57.6l-85.333333-102.826667a42.666667 42.666667 0 0 0-33.28-16.213333z"  horiz-adv-x="1024" />

    
    <glyph glyph-name="security2" unicode="&#59098;" d="M512-128a156.16 156.16 0 0 0-48.213333 7.68 896 896 0 0 0-219.733334 97.706667C67.84 93.44 64 248.746667 64 256V691.626667a85.333333 85.333333 0 0 0 81.493333 82.773333C251.733333 778.24 419.84 860.586667 469.333333 885.76a96 96 0 0 0 85.333334 0c48.64-25.173333 216.32-107.52 323.413333-111.36a85.333333 85.333333 0 0 0 81.92-82.773333V256c0-7.253333-3.84-162.56-180.48-279.04a860.16 860.16 0 0 0-219.306667-97.28A154.026667 154.026667 0 0 0 512-128z m-220.586667 176.213333a831.146667 831.146667 0 0 1 197.973334-85.333333 66.56 66.56 0 0 1 42.666666 0 813.653333 813.653333 0 0 1 197.546667 85.333333c138.666667 91.733333 143.786667 204.8 143.786667 209.92V691.626667c-120.32 0-290.986667 83.2-358.826667 118.186666a8.106667 8.106667 0 0 1-7.68 0c-85.333333-42.666667-243.626667-116.48-360.106667-120.32L149.333333 256c0-4.266667 5.12-117.333333 142.08-207.786667zM436.48 152.746667a42.666667 42.666667 0 0 0-30.72 13.226666L223.573333 354.133333a42.666667 42.666667 0 1 0 61.013334 59.306667L437.76 256l302.933333 287.573333a42.666667 42.666667 0 0 0 60.16 0 42.666667 42.666667 0 0 0 0-60.586666l-333.653333-316.16a42.666667 42.666667 0 0 0-30.72-14.08z"  horiz-adv-x="1024" />

    
    <glyph glyph-name="score2" unicode="&#59099;" d="M512.511573 782.08l111.36-223.573333A85.333333 85.333333 0 0 1 688.29824 512l247.04-35.84-178.346667-170.666667a85.333333 85.333333 0 0 1-24.746666-75.946666l42.666666-243.626667-222.72 115.626667a85.333333 85.333333 0 0 1-78.506666 0l-223.146667-116.053334 42.666667 243.626667a85.333333 85.333333 0 0 1-24.746667 75.946667l-178.346667 170.666666L336.724907 512a85.333333 85.333333 0 0 1 64.426666 46.506667L512.511573 782.08M512.511573 870.4a81.493333 81.493333 0 0 1-73.813333-45.653333L324.77824 597.333333l-253.44-36.693333a81.92 81.92 0 0 1-45.653333-140.8l183.04-176.213333-42.666667-249.6a82.773333 82.773333 0 0 1 80.64-96.426667 85.333333 85.333333 0 0 1 38.4 9.386667L512.511573 25.173333l227.413334-118.186666a85.333333 85.333333 0 0 1 38.4-9.386667 82.773333 82.773333 0 0 1 81.493333 96.426667l-42.666667 249.6 183.04 176.213333a81.92 81.92 0 0 1-45.653333 140.373333L700.244907 597.333333l-113.92 227.413334A81.493333 81.493333 0 0 1 512.511573 870.4z"  horiz-adv-x="1025" />

    
    <glyph glyph-name="specialreturn2" unicode="&#59100;" d="M978.346667 426.666667H156.16l327.253333 309.76a42.666667 42.666667 0 0 1 0 61.013333 46.933333 46.933333 0 0 1-64.426666 0l-405.76-384a42.666667 42.666667 0 0 1 0-61.44l405.76-384a46.933333 46.933333 0 0 1 64.426666 0 42.666667 42.666667 0 0 1 0 61.013333L156.16 341.333333h822.186667a42.666667 42.666667 0 1 1 0 85.333334z"  horiz-adv-x="1024" />

    
    <glyph glyph-name="Change2" unicode="&#59101;" d="M980.798793 426.94966a42.64094 42.64094 0 0 1-42.64094-42.64094A426.4094 426.4094 0 1 0 511.748453 810.71812a421.292487 421.292487 0 0 0 295.075304-119.394632l-42.640939-23.452517a21.32047 21.32047 0 0 1 3.411275-38.376846l154.360202-57.565269a21.32047 21.32047 0 0 1 28.56943 17.056376l23.026108 158.197888a21.32047 21.32047 0 0 1-31.980705 20.89406l-57.565269-33.259933A511.69128 511.69128 0 1 1 1023.439733 384.30872a42.64094 42.64094 0 0 1-42.64094 42.64094z"  horiz-adv-x="1024" />

    
    <glyph glyph-name="time2" unicode="&#59102;" d="M512 810.666667A426.666667 426.666667 0 1 0 85.333333 384 426.666667 426.666667 0 0 0 512 810.666667m0 85.333333a512 512 0 1 1 512-512A512 512 0 0 1 512 896zM664.746667 188.586667a42.666667 42.666667 0 0 0-30.293334 12.373333l-152.746666 152.746667A42.666667 42.666667 0 0 0 469.333333 384V689.493333a42.666667 42.666667 0 0 0 85.333334 0v-288l140.373333-139.946666a42.666667 42.666667 0 0 0 0-60.586667 42.666667 42.666667 0 0 0-30.293333-12.373333z"  horiz-adv-x="1024" />

    
    <glyph glyph-name="tips2" unicode="&#59103;" d="M512 810.666667A426.666667 426.666667 0 1 0 85.333333 384 426.666667 426.666667 0 0 0 512 810.666667m0 85.333333a512 512 0 1 1 512-512A512 512 0 0 1 512 896zM512 109.653333a42.666667 42.666667 0 0 0-42.666667 42.666667v345.6a42.666667 42.666667 0 1 0 85.333334 0v-345.6a42.666667 42.666667 0 0 0-42.666667-42.666667zM512 682.666667a42.666667 42.666667 0 1 1 42.666667-42.666667 42.666667 42.666667 0 0 1-42.666667 42.666667z"  horiz-adv-x="1024" />

    
    <glyph glyph-name="search2" unicode="&#59104;" d="M1011.2-46.93333299999995L832 128c68.266667 81.066667 106.666667 183.466667 106.666667 298.666667 0 260.266667-209.066667 469.333333-469.333334 469.333333S0 686.933333 0 426.666667s209.066667-469.333333 469.333333-469.333334c110.933333 0 217.6 38.4 298.666667 106.666667l174.933333-179.2c8.533333-8.533333 21.333333-12.8 34.133334-12.8 12.8 0 25.6 4.266667 34.133333 12.8 17.066667 21.333333 17.066667 51.2 0 68.266667zM469.333333 42.66666699999996c-213.333333 0-384 170.666667-384 384s170.666667 384 384 384 384-170.666667 384-384-170.666667-384-384-384z"  horiz-adv-x="1024" />

    
    <glyph glyph-name="sitting2" unicode="&#59105;" d="M652.39808-106.666667a109.226667 109.226667 0 0 0-81.92 36.693334A139.946667 139.946667 0 0 1 512.024747-29.866667a148.48 148.48 0 0 1-61.013334-42.666666 99.84 99.84 0 0 0-76.8-33.706667 95.146667 95.146667 0 0 0-38.4 5.973333 42.666667 42.666667 0 0 0-10.24 3.84L213.35808-35.84a42.666667 42.666667 0 0 0-11.52 5.973333 106.24 106.24 0 0 0-35.84 125.44 85.333333 85.333333 0 0 1 7.253333 28.586667 71.68 71.68 0 0 1-72.106666 72.96 93.866667 93.866667 0 0 0-89.6 82.773333A434.346667 434.346667 0 0 0 0.024747 384a512 512 0 0 0 11.52 100.693333 91.306667 91.306667 0 0 0 85.333333 85.333334A72.106667 72.106667 0 0 1 170.691413 640a80.213333 80.213333 0 0 1-6.826666 27.306667 103.68 103.68 0 0 0 36.266666 126.293333 36.266667 36.266667 0 0 0 13.226667 6.4L327.704747 864.853333A42.666667 42.666667 0 0 0 341.35808 869.973333 123.733333 123.733333 0 0 0 374.211413 874.666667a111.786667 111.786667 0 0 0 76.8-29.866667 135.253333 135.253333 0 0 1 61.013334-42.666667 140.373333 140.373333 0 0 1 61.013333 38.4 101.546667 101.546667 0 0 0 77.226667 34.133334 92.16 92.16 0 0 0 37.973333-5.973334 39.253333 39.253333 0 0 0 10.666667-3.84L810.691413 801.28a38.4 38.4 0 0 0 11.946667-5.546667 107.093333 107.093333 0 0 0 34.986667-125.44 85.333333 85.333333 0 0 1-7.253334-28.586666 71.68 71.68 0 0 1 72.106667-72.96 93.866667 93.866667 0 0 0 90.453333-82.773334A436.48 436.48 0 0 0 1024.024747 384a592.213333 592.213333 0 0 0-11.52-102.826667 90.88 90.88 0 0 0-85.333334-83.2 72.533333 72.533333 0 0 1-75.946666-72.96 80.213333 80.213333 0 0 1 6.826666-27.306666 104.106667 104.106667 0 0 0-34.56-124.586667 42.666667 42.666667 0 0 0-13.226666-6.4l-110.08-62.72a49.066667 49.066667 0 0 0-15.786667-5.12 114.346667 114.346667 0 0 0-32-5.546667z m-293.12 87.466667a22.186667 22.186667 0 0 0 6.4-2.56h6.4a17.066667 17.066667 0 0 1 11.946667 6.4 202.24 202.24 0 0 0 128 70.826667c63.146667 0 125.44-69.546667 128-70.4a23.893333 23.893333 0 0 1 16.64-6.4 30.293333 30.293333 0 0 1 9.813333 2.133333L773.571413 42.666667a17.92 17.92 0 0 1 2.986667 18.346666 168.106667 168.106667 0 0 0-13.653333 61.013334 157.866667 157.866667 0 0 0 157.44 158.293333c2.133333 0 5.12 3.84 6.4 12.373333A541.866667 541.866667 0 0 1 938.691413 384a497.493333 497.493333 0 0 1-7.68 78.506667 37.546667 37.546667 0 0 0-2.133333 6.4 36.693333 36.693333 0 0 1-5.973333 15.36A158.72 158.72 0 0 0 764.611413 640a161.706667 161.706667 0 0 0 14.506667 62.293333 21.76 21.76 0 0 1-4.266667 19.626667l-110.933333 62.72a25.173333 25.173333 0 0 0-5.973333 2.56h-6.4a25.173333 25.173333 0 0 1-14.08-3.84A213.333333 213.333333 0 0 0 512.024747 718.933333a197.546667 197.546667 0 0 0-123.733334 68.266667h-14.08a36.693333 36.693333 0 0 1-8.96 0h-2.133333L248.344747 721.92a17.92 17.92 0 0 1-2.986667-18.346667A168.106667 168.106667 0 0 0 256.024747 640a157.866667 157.866667 0 0 0-155.733334-156.586667 20.906667 20.906667 0 0 1-4.693333-12.373333 49.493333 49.493333 0 0 0 0-7.68A461.653333 461.653333 0 0 1 85.35808 384a512 512 0 0 1 7.68-78.933333 33.28 33.28 0 0 0 0-5.973334 42.666667 42.666667 0 0 1 5.973333-15.786666 158.293333 158.293333 0 0 0 158.293334-157.866667 167.253333 167.253333 0 0 0-14.506667-62.72 20.48 20.48 0 0 1 4.266667-18.773333zM350.744747 827.733333zM512.024747 170.666667a213.333333 213.333333 0 1 0 213.333333 213.333333 213.333333 213.333333 0 0 0-213.333333-213.333333z m0 341.333333a128 128 0 1 1 128-128 128 128 0 0 1-128 128z"  horiz-adv-x="1024" />

    
    <glyph glyph-name="comment2" unicode="&#59106;" d="M512-42.666667a42.666667 42.666667 0 0 0-26.453333 9.386667l-128 100.266667H111.786667A111.36 111.36 0 0 0 0 178.346667V699.306667A111.36 111.36 0 0 0 111.786667 810.666667h800.426666A111.36 111.36 0 0 0 1024 699.306667v-520.96a111.36 111.36 0 0 0-111.786667-111.36h-247.466666l-128-100.266667A42.666667 42.666667 0 0 0 512-42.666667zM111.786667 725.333333a26.026667 26.026667 0 0 1-26.453334-26.026666v-520.96a26.026667 26.026667 0 0 1 26.453334-26.026667h261.973333a42.666667 42.666667 0 0 0 26.88-8.96L512 54.613333l111.36 88.746667a42.666667 42.666667 0 0 0 26.88 8.96h261.973333a26.026667 26.026667 0 0 1 26.453334 26.026667V699.306667a26.026667 26.026667 0 0 1-26.453334 26.026666zM744.96 396.373333H279.04a42.666667 42.666667 0 1 0 0 85.333334h465.92a42.666667 42.666667 0 0 0 0-85.333334z"  horiz-adv-x="1024" />

    
    <glyph glyph-name="fall" unicode="&#59107;" d="M576 53.76l377.856 576.512a76.8 76.8 0 0 1-64.512 118.784H134.656a76.8 76.8 0 0 1-64.512-118.784l377.856-576.512a76.288 76.288 0 0 1 128 0z"  horiz-adv-x="1024" />

    
    <glyph glyph-name="screen" unicode="&#59108;" d="M423.68-42.666667a42.666667 42.666667 0 0 0-42.666667 42.666667l-3.84 469.333333-319.146666 266.24a42.666667 42.666667 0 0 0-12.8 47.36A42.666667 42.666667 0 0 0 85.333333 810.666667h853.333334a42.666667 42.666667 0 0 0 42.666666-28.586667 42.666667 42.666667 0 0 0-13.653333-47.36L680.106667 512a42.666667 42.666667 0 0 0-61.44 6.4 42.666667 42.666667 0 0 0 6.826666 60.16L812.8 725.333333H205.653333l244.053334-202.666666a42.666667 42.666667 0 0 0 15.36-32L469.333333 0a42.666667 42.666667 0 0 0-42.666666-42.666667zM815.36 280.32h-178.773333a42.666667 42.666667 0 1 0 0 85.333333h178.773333a42.666667 42.666667 0 1 0 0-85.333333zM815.36 66.986667h-178.773333a42.666667 42.666667 0 1 0 0 85.333333h178.773333a42.666667 42.666667 0 1 0 0-85.333333z"  horiz-adv-x="1024" />

    
    <glyph glyph-name="note2" unicode="&#59109;" d="M512 896a512 512 0 1 1 512-512A512 512 0 0 1 512 896z m34.56-788.906667a38.826667 38.826667 0 0 0-9.386667-14.08 42.666667 42.666667 0 0 0-13.653333-9.386666 42.666667 42.666667 0 0 0-16.64-2.986667 42.666667 42.666667 0 0 0-29.866667 12.373333 42.666667 42.666667 0 0 0-12.8 30.293334 42.666667 42.666667 0 0 0 12.8 30.293333 42.666667 42.666667 0 0 0 38.4 11.52 29.866667 29.866667 0 0 0 8.106667-2.56 23.893333 23.893333 0 0 0 7.253333-3.84l6.4-5.12a50.773333 50.773333 0 0 0 9.386667-14.08 42.666667 42.666667 0 0 0 2.986667-16.213333 42.666667 42.666667 0 0 0-2.986667-16.213334z m53.333333 224.426667c-26.453333-25.6-49.493333-47.786667-49.493333-67.84a42.666667 42.666667 0 0 0-85.333333 0 186.453333 186.453333 0 0 0 75.946666 128c37.12 35.84 72.106667 69.546667 72.106667 122.88a91.306667 91.306667 0 0 1-103.253333 85.333333 98.133333 98.133333 0 0 1-98.986667-101.12 42.666667 42.666667 0 0 0-42.666667-42.666666 42.666667 42.666667 0 0 0-42.666666 42.666666A181.76 181.76 0 0 0 512 687.36a176.64 176.64 0 0 0 188.586667-170.666667 251.733333 251.733333 0 0 0-100.693334-185.173333z"  horiz-adv-x="1024" />

    
    <glyph glyph-name="rise" unicode="&#59110;" d="M576 711.168l377.856-576.512a76.8 76.8 0 0 0-64.512-118.784H134.656a76.8 76.8 0 0 0-64.512 118.784L448 711.168a76.288 76.288 0 0 0 128 0z"  horiz-adv-x="1024" />

    
    <glyph glyph-name="fall1" unicode="&#59111;" d="M565.333333 108.8l314.88 480.426667a64 64 0 0 1-53.76 98.986666H197.546667a64 64 0 0 1-53.76-98.986666l314.88-480.426667a63.573333 63.573333 0 0 1 106.666666 0z"  horiz-adv-x="1024" />

    
    <glyph glyph-name="rise1" unicode="&#59112;" d="M565.333333 656.64l314.88-480.426667a64 64 0 0 0-53.76-98.986666H197.546667a64 64 0 0 0-53.76 98.986666l314.88 480.426667a63.573333 63.573333 0 0 0 106.666666 0z"  horiz-adv-x="1024" />

    
    <glyph glyph-name="addressr2" unicode="&#59113;" d="M866.986667 658.773333A387.413333 387.413333 0 0 1 512 896a387.413333 387.413333 0 0 1-354.986667-237.226667 379.733333 379.733333 0 0 1 85.333334-416l246.613333-207.36a13.226667 13.226667 0 0 1 4.693333-3.84 34.56 34.56 0 0 1 40.106667 0 13.226667 13.226667 0 0 1 4.693333 3.84l246.613334 207.36a379.733333 379.733333 0 0 1 81.92 416zM512 341.333333a174.506667 174.506667 0 0 0-120.746667 49.92A170.666667 170.666667 0 0 0 341.333333 512a167.253333 167.253333 0 0 0 49.493334 121.173333 170.666667 170.666667 0 0 0 241.92 0A170.666667 170.666667 0 0 0 512 341.333333zM512-13.226667c-94.293333 0-196.266667-18.773333-196.266667-57.173333C315.733333-105.813333 417.706667-128 512-128s196.266667 16.64 196.266667 57.6-101.973333 57.173333-196.266667 57.173333z"  horiz-adv-x="1024" />

    
    <glyph glyph-name="addressl2" unicode="&#59114;" d="M482.988734 57.586777a45.223444 45.223444 0 0 1 29.011266-10.665907 46.076717 46.076717 0 0 1 29.011266 10.665907l242.329401 209.051772A359.654375 359.654375 0 0 1 895.972642 527.313309 376.719825 376.719825 0 0 1 512 895.927045a376.719825 376.719825 0 0 1-383.972642-368.613736 360.934283 360.934283 0 0 1 112.205339-260.67476zM512 810.599791a291.819208 291.819208 0 0 0 298.645388-283.286482 276.886938 276.886938 0 0 0-85.327254-197.532593l-213.318134-184.306868-213.318134 184.306868a276.886938 276.886938 0 0 0-85.327254 197.532593A291.819208 291.819208 0 0 0 512 810.599791zM507.307001 349.405985H512a170.654508 170.654508 0 0 1 120.311428 49.916443A170.654508 170.654508 0 0 1 512 690.715a170.654508 170.654508 0 0 1-4.266363-341.309015zM451.41765 580.216206A85.327254 85.327254 0 0 0 597.327254 520.060492a85.327254 85.327254 0 0 0-85.327254-85.327253 85.327254 85.327254 0 0 0-60.58235 145.482967zM744.516767 160.406118a42.663627 42.663627 0 0 1-18.34536-85.327254c26.451449-5.972908 58.022533-17.065451 58.022533-38.397264 0-33.277629-96.846433-81.487527-272.19394-81.487528s-272.19394 48.209898-272.19394 81.487528c0 7.679453 0 29.864539 62.288896 40.530445a42.663627 42.663627 0 0 1-14.078997 85.327254c-116.045065-19.625268-133.537152-85.327254-133.537152-124.57779C154.478807-62.298015 294.842139-128 512-128s357.521193 65.701985 357.521193 166.814781c0 35.41081-16.212178 97.699706-125.004426 121.591337z"  horiz-adv-x="1024" />

    
    <glyph glyph-name="image2" unicode="&#59115;" d="M890.026667 733.866667A48.213333 48.213333 0 0 0 938.666667 686.08v-604.16a48.213333 48.213333 0 0 0-48.64-47.786667H133.973333A48.213333 48.213333 0 0 0 85.333333 81.92V686.08A48.213333 48.213333 0 0 0 133.973333 733.866667h756.053334m0 85.333333H133.973333A133.546667 133.546667 0 0 1 0 686.08v-604.16a133.546667 133.546667 0 0 1 133.973333-133.12h756.053334A133.546667 133.546667 0 0 1 1024 81.92V686.08a133.546667 133.546667 0 0 1-133.973333 133.12zM185.173333 100.693333a38.4 38.4 0 0 0-11.946666 0 42.666667 42.666667 0 0 0-29.013334 52.906667c6.826667 22.613333 68.266667 219.306667 207.786667 219.306667a247.893333 247.893333 0 0 0 104.96-21.76 197.12 197.12 0 0 1 85.333333-17.92c40.106667 0 53.76 24.32 80.64 88.32 29.866667 72.106667 71.253333 170.666667 213.333334 170.666666a42.666667 42.666667 0 0 0 0-85.333333c-82.346667 0-104.106667-42.666667-135.68-118.186667-26.026667-62.72-58.453333-140.8-159.146667-140.8a278.613333 278.613333 0 0 0-114.773333 25.6 163.84 163.84 0 0 1-72.96 15.786667c-60.16 0-110.506667-106.24-125.866667-157.866667a42.666667 42.666667 0 0 0-42.666667-30.72zM307.2 563.2m-76.8 0a76.8 76.8 0 1 1 153.6 0 76.8 76.8 0 1 1-153.6 0Z"  horiz-adv-x="1024" />

    
    <glyph glyph-name="open" unicode="&#59116;" d="M961.024 604.672l-402.944-506.368a59.904 59.904 0 0 0-92.16 0L62.976 604.16a54.272 54.272 0 0 0 46.08 87.04h805.888a53.76 53.76 0 0 0 46.08-86.528z"  horiz-adv-x="1024" />

    
    <glyph glyph-name="ziyuan5" unicode="&#59117;" d="M904.382836-128H212.717382A214.574545 214.574545 0 0 0 0.004655 87.970909v168.96a46.545455 46.545455 0 0 0 93.090909 0v-168.96A121.018182 121.018182 0 0 1 212.717382-34.909091h691.665454A121.018182 121.018182 0 0 1 1024.004655 87.970909v168.96a46.545455 46.545455 0 0 0 93.090909 0v-168.96A214.574545 214.574545 0 0 0 904.382836-128zM558.550109 69.352727a46.545455 46.545455 0 0 0-28.858182 9.774546l-359.796363 282.065454a46.545455 46.545455 0 0 0-14.894546 52.130909 46.545455 46.545455 0 0 0 43.752727 31.185455h147.083637V849.454545a46.545455 46.545455 0 0 0 46.545454 46.545455h332.334546a46.545455 46.545455 0 0 0 46.545454-46.545455v-404.945454h147.083637a46.545455 46.545455 0 0 0 44.218182-31.185455 46.545455 46.545455 0 0 0-15.36-52.130909l-359.796364-282.065454a46.545455 46.545455 0 0 0-28.858182-9.774546zM333.735564 351.418182L558.550109 175.010909l224.814546 176.407273h-58.647273a46.545455 46.545455 0 0 0-46.545455 46.545454V802.909091H438.928291v-404.945455a46.545455 46.545455 0 0 0-46.545455-46.545454z"  horiz-adv-x="1117" />

    
    <glyph glyph-name="remind2" unicode="&#59118;" d="M926.293333 102.826667L853.333333 173.226667v277.76a341.333333 341.333333 0 0 1-256 330.24V810.666667a85.333333 85.333333 0 0 1-170.666666 0v-29.44a341.333333 341.333333 0 0 1-256-330.24v-276.48l-72.533334-71.68a42.666667 42.666667 0 0 1 29.866667-70.4h768a42.666667 42.666667 0 0 1 30.293333 70.4z m-362.24 14.933333H234.24A85.333333 85.333333 0 0 1 256 174.506667v276.48a256 256 0 0 0 512 0v-277.76a85.333333 85.333333 0 0 1 20.48-55.466667zM512-128a128 128 0 0 1 128 128H384a128 128 0 0 1 128-128z"  horiz-adv-x="1024" />

    
    <glyph glyph-name="personal" unicode="&#59119;" d="M745.890909-104.727273H279.272727a186.181818 186.181818 0 0 0-185.018182 186.181818v97.745455a186.181818 186.181818 0 0 0 186.181819 185.018182h467.781818a186.181818 186.181818 0 0 0 186.181818-186.181818v-98.909091a186.181818 186.181818 0 0 0-188.509091-183.854546zM279.272727 271.127273a93.090909 93.090909 0 0 1-93.090909-91.927273v-98.909091A93.090909 93.090909 0 0 1 279.272727-11.636364h467.781818a93.090909 93.090909 0 0 1 93.09091 93.090909v97.745455a93.090909 93.090909 0 0 1-93.09091 91.927273zM493.614545 381.672727A242.967273 242.967273 0 0 0 325.818182 448 245.527273 245.527273 0 0 0 493.847273 872.727273h161.28a84.48 84.48 0 0 0 84.247272-84.247273v-154.530909a249.716364 249.716364 0 0 0-229.236363-251.810909z m0 397.963637a152.436364 152.436364 0 1 1 10.24-304.64 156.16 156.16 0 0 1 142.196364 158.952727V779.636364z"  horiz-adv-x="1024" />

    
    <glyph glyph-name="news" unicode="&#59120;" d="M330.938182 125.905455a77.265455 77.265455 0 0 0-72.378182 103.563636l93.090909 256a95.650909 95.650909 0 0 0 57.018182 57.250909l257.163636 93.090909a78.196364 78.196364 0 0 0 89.6-28.392727 77.032727 77.032727 0 0 0 9.309091-69.818182l-93.090909-257.163636a94.952727 94.952727 0 0 0-57.250909-57.250909l-256-93.09091a78.661818 78.661818 0 0 0-27.461818-4.18909z m-5.352727 93.090909z m340.48 319.069091L442.181818 456.378182l-83.316363-226.443637L581.818182 311.621818zM512-128a512 512 0 1 0 512 512 512 512 0 0 0-512-512z m0 930.909091a418.909091 418.909091 0 1 1 418.909091-418.909091A418.909091 418.909091 0 0 1 512 802.909091z"  horiz-adv-x="1024" />

    
    <glyph glyph-name="message" unicode="&#59121;" d="M851.457203-128H523.777277C245.66825-128 10.846485 92.858132 0.37376 364.450797A511.999884 511.999884 0 0 0 512.373644 895.999767a511.999884 511.999884 0 0 0 400.058091-831.767083 20.247268 20.247268 0 0 1-2.792727-22.109086l14.429088-30.487266a89.134525 89.134525 0 0 0-72.610893-139.636332zM512.373644 802.908879A418.908996 418.908996 0 0 1 93.464648 367.941705C102.075555 145.687211 295.00642-34.909112 523.777277-34.909112h319.999928l-1.396364 2.559999-16.523632 33.51272a114.501792 114.501792 0 0 0 13.963633 121.250882A418.908996 418.908996 0 0 1 512.373644 802.908879zM366.919131 221.09083a46.545444 46.545444 0 0 0-46.545444 46.545444V500.363494a46.545444 46.545444 0 0 0 93.090888 0v-232.72722a46.545444 46.545444 0 0 0-46.545444-46.545444zM657.828156 221.09083a46.545444 46.545444 0 0 0-46.545444 46.545444V500.363494a46.545444 46.545444 0 0 0 93.090888 0v-232.72722a46.545444 46.545444 0 0 0-46.545444-46.545444z"  horiz-adv-x="1024" />

    
    <glyph glyph-name="order" unicode="&#59122;" d="M624.872727-128H248.32A203.636364 203.636364 0 0 0 46.545455 76.8V537.6A359.330909 359.330909 0 0 0 149.643636 790.574545 347.694545 347.694545 0 0 0 399.127273 896h376.552727A203.636364 203.636364 0 0 0 977.454545 691.2v-460.8a358.4 358.4 0 0 0-103.098181-252.741818A346.996364 346.996364 0 0 0 624.872727-128z m-225.745454 930.909091a253.905455 253.905455 0 0 1-182.923637-77.730909A266.24 266.24 0 0 1 139.636364 537.6v-460.8a110.312727 110.312727 0 0 1 108.683636-111.709091h376.552727a253.905455 253.905455 0 0 1 182.923637 77.730909A266.24 266.24 0 0 1 884.363636 230.4V691.2A110.312727 110.312727 0 0 1 775.68 802.909091zM688.407273 226.443636H335.592727a46.545455 46.545455 0 1 0 0 93.090909h352.814546a46.545455 46.545455 0 0 0 0-93.090909zM512 459.170909h-176.407273a46.545455 46.545455 0 1 0 0 93.090909H512a46.545455 46.545455 0 0 0 0-93.090909z"  horiz-adv-x="1024" />

    
    <glyph glyph-name="home" unicode="&#59123;" d="M512 727.738182a20.48 20.48 0 0 0 11.403636-3.490909l306.036364-215.970909a19.549091 19.549091 0 0 0 8.378182-16.058182v-432.174546a20.014545 20.014545 0 0 0-19.781818-19.781818H205.963636a20.014545 20.014545 0 0 0-19.781818 19.781818V492.218182a20.247273 20.247273 0 0 0 8.378182 16.058182l306.036364 215.970909a20.945455 20.945455 0 0 0 11.403636 3.490909m0 93.090909a112.174545 112.174545 0 0 1-64.930909-20.712727L140.8 584.378182a113.338182 113.338182 0 0 1-46.545455-93.090909v-431.243637a112.872727 112.872727 0 0 1 112.872728-112.872727h612.072727a112.872727 112.872727 0 0 1 111.709091 112.872727V492.218182a113.338182 113.338182 0 0 1-46.545455 93.090909L577.163636 800.116364a113.338182 113.338182 0 0 1-65.163636 20.712727zM644.654545 221.090909H379.345455a46.545455 46.545455 0 0 0 0 93.090909h265.30909a46.545455 46.545455 0 0 0 0-93.090909z"  horiz-adv-x="1024" />

    
    <glyph glyph-name="image_3" unicode="&#59124;" d="M889.949091 749.381818A63.767273 63.767273 0 0 0 954.181818 686.545455v-605.09091a63.767273 63.767273 0 0 0-64.232727-63.06909H134.050909A63.767273 63.767273 0 0 0 69.818182 81.454545V686.545455a63.767273 63.767273 0 0 0 64.232727 62.836363h755.898182m0 69.818182H134.050909A133.585455 133.585455 0 0 1 0 686.545455v-605.09091a133.585455 133.585455 0 0 1 134.050909-132.654545h755.898182A133.585455 133.585455 0 0 1 1024 81.454545V686.545455a133.585455 133.585455 0 0 1-134.050909 132.654545zM186.181818 108.450909a35.374545 35.374545 0 0 0-9.774545 1.396364 34.909091 34.909091 0 0 0-23.272728 43.287272c2.56 8.843636 64.232727 213.876364 200.378182 213.876364a240.174545 240.174545 0 0 0 101.934546-21.410909 201.774545 201.774545 0 0 1 90.065454-18.385455c44.450909 0 60.043636 26.996364 87.738182 93.09091s69.818182 165.701818 206.894546 165.701818a34.909091 34.909091 0 1 0 0-69.818182c-86.807273 0-110.778182-46.545455-142.661819-122.88-25.134545-60.509091-56.785455-136.145455-151.970909-136.145455a269.963636 269.963636 0 0 0-116.363636 23.272728 171.287273 171.287273 0 0 1-75.636364 16.290909c-69.818182 0-120.785455-121.250909-133.352727-162.909091A35.141818 35.141818 0 0 0 186.181818 108.450909zM307.2 563.2m-76.8 0a76.8 76.8 0 1 1 153.6 0 76.8 76.8 0 1 1-153.6 0Z"  horiz-adv-x="1024" />

    
    <glyph glyph-name="expression" unicode="&#59125;" d="M512 841.142857C259.657143 841.142857 54.857143 636.342857 54.857143 384s204.8-457.142857 457.142857-457.142857 457.142857 204.8 457.142857 457.142857S764.342857 841.142857 512 841.142857z m0-859.428571C288.914286-18.285714 109.714286 160.914286 109.714286 384S288.914286 786.285714 512 786.285714s402.285714-179.2 402.285714-402.285714-179.2-402.285714-402.285714-402.285714zM310.857143 475.428571m-54.857143 0a54.857143 54.857143 0 1 1 109.714286 0 54.857143 54.857143 0 1 1-109.714286 0ZM713.142857 475.428571m-54.857143 0a54.857143 54.857143 0 1 1 109.714286 0 54.857143 54.857143 0 1 1-109.714286 0ZM669.257143 340.114286c-14.628571 1.828571-29.257143-9.142857-31.085714-23.771429-7.314286-69.485714-71.314286-120.685714-140.8-113.371428-58.514286 7.314286-107.885714 54.857143-113.371429 113.371428-1.828571 14.628571-14.628571 25.6-31.085714 23.771429-14.628571-1.828571-25.6-14.628571-23.771429-31.085715 9.142857-84.114286 76.8-153.6 162.742857-162.742857 7.314286 0 12.8-1.828571 20.114286-1.828571 91.428571 0 171.885714 69.485714 181.028571 162.742857 1.828571 16.457143-9.142857 31.085714-23.771428 32.914286z"  horiz-adv-x="1024" />

    
    <glyph glyph-name="function" unicode="&#59126;" d="M512 896C228.571429 896 0 667.428571 0 384s228.571429-512 512-512 512 228.571429 512 512S795.428571 896 512 896z m0-969.142857C259.657143-73.142857 54.857143 131.657143 54.857143 384S259.657143 841.142857 512 841.142857s457.142857-204.8 457.142857-457.142857-204.8-457.142857-457.142857-457.142857zM777.142857 411.428571h-237.714286v237.714286c0 14.628571-12.8 27.428571-27.428571 27.428572s-27.428571-12.8-27.428571-27.428572v-237.714286h-237.714286c-14.628571 0-27.428571-12.8-27.428572-27.428571s12.8-27.428571 27.428572-27.428571h237.714286v-237.714286c0-14.628571 12.8-27.428571 27.428571-27.428572s27.428571 12.8 27.428571 27.428572v237.714286h237.714286c14.628571 0 27.428571 12.8 27.428572 27.428571s-12.8 27.428571-27.428572 27.428571z"  horiz-adv-x="1024" />

    
    <glyph glyph-name="voice" unicode="&#59127;" d="M512 896C228.571429 896 0 667.428571 0 384s228.571429-512 512-512 512 228.571429 512 512S795.428571 896 512 896z m0-969.142857C259.657143-73.142857 54.857143 131.657143 54.857143 384S259.657143 841.142857 512 841.142857s457.142857-204.8 457.142857-457.142857-204.8-457.142857-457.142857-457.142857zM512 232.228571c100.571429 0 182.857143 82.285714 182.857143 182.857143V566.857143c0 100.571429-82.285714 182.857143-182.857143 182.857143s-182.857143-82.285714-182.857143-182.857143v-151.771429c0-100.571429 82.285714-182.857143 182.857143-182.857143zM384 566.857143c0 71.314286 56.685714 128 128 128s128-56.685714 128-128v-151.771429c0-71.314286-56.685714-128-128-128s-128 56.685714-128 128V566.857143zM768 457.142857c-14.628571 0-27.428571-12.8-27.428571-27.428571v-12.8c0-62.171429-23.771429-118.857143-65.828572-162.742857s-100.571429-67.657143-162.742857-69.485715c-126.171429 0-228.571429 104.228571-228.571429 230.4v12.8c0 14.628571-12.8 27.428571-27.428571 27.428572s-27.428571-12.8-27.428571-27.428572v-12.8c0-148.114286 111.542857-268.8 256-285.257143V73.142857H384c-14.628571 0-27.428571-12.8-27.428571-27.428571S369.371429 18.285714 384 18.285714h256c14.628571 0 27.428571 12.8 27.428571 27.428572S654.628571 73.142857 640 73.142857h-100.571429v60.342857c144.457143 14.628571 257.828571 137.142857 256 285.257143v10.971429c0 16.457143-12.8 27.428571-27.428571 27.428571z"  horiz-adv-x="1024" />

    
    <glyph glyph-name="keyboard" unicode="&#59128;" d="M512 896C228.571429 896 0 667.428571 0 384s228.571429-512 512-512 512 228.571429 512 512S795.428571 896 512 896z m0-969.142857C259.657143-73.142857 54.857143 131.657143 54.857143 384S259.657143 841.142857 512 841.142857s457.142857-204.8 457.142857-457.142857-204.8-457.142857-457.142857-457.142857zM722.285714 219.428571h-420.571428c-20.114286 0-36.571429-16.457143-36.571429-36.571428s16.457143-36.571429 36.571429-36.571429h420.571428c20.114286 0 36.571429 16.457143 36.571429 36.571429s-16.457143 36.571429-36.571429 36.571428zM228.571429 457.142857h73.142857c10.971429 0 18.285714 7.314286 18.285714 18.285714v73.142858c0 10.971429-7.314286 18.285714-18.285714 18.285714h-73.142857c-10.971429 0-18.285714-7.314286-18.285715-18.285714v-73.142858c0-10.971429 7.314286-18.285714 18.285715-18.285714zM393.142857 457.142857h73.142857c10.971429 0 18.285714 7.314286 18.285715 18.285714v73.142858c0 10.971429-7.314286 18.285714-18.285715 18.285714h-73.142857c-10.971429 0-18.285714-7.314286-18.285714-18.285714v-73.142858c0-10.971429 7.314286-18.285714 18.285714-18.285714zM557.714286 457.142857h73.142857c10.971429 0 18.285714 7.314286 18.285714 18.285714v73.142858c0 10.971429-7.314286 18.285714-18.285714 18.285714h-73.142857c-10.971429 0-18.285714-7.314286-18.285715-18.285714v-73.142858c0-10.971429 7.314286-18.285714 18.285715-18.285714zM795.428571 566.857143h-73.142857c-10.971429 0-18.285714-7.314286-18.285714-18.285714v-73.142858c0-10.971429 7.314286-18.285714 18.285714-18.285714h73.142857c10.971429 0 18.285714 7.314286 18.285715 18.285714v73.142858c0 10.971429-7.314286 18.285714-18.285715 18.285714zM320 310.857143v73.142857c0 10.971429-7.314286 18.285714-18.285714 18.285714h-73.142857c-10.971429 0-18.285714-7.314286-18.285715-18.285714v-73.142857c0-10.971429 7.314286-18.285714 18.285715-18.285714h73.142857c10.971429 0 18.285714 7.314286 18.285714 18.285714zM393.142857 292.571429h73.142857c10.971429 0 18.285714 7.314286 18.285715 18.285714v73.142857c0 10.971429-7.314286 18.285714-18.285715 18.285714h-73.142857c-10.971429 0-18.285714-7.314286-18.285714-18.285714v-73.142857c0-10.971429 7.314286-18.285714 18.285714-18.285714zM557.714286 292.571429h73.142857c10.971429 0 18.285714 7.314286 18.285714 18.285714v73.142857c0 10.971429-7.314286 18.285714-18.285714 18.285714h-73.142857c-10.971429 0-18.285714-7.314286-18.285715-18.285714v-73.142857c0-10.971429 7.314286-18.285714 18.285715-18.285714zM795.428571 402.285714h-73.142857c-10.971429 0-18.285714-7.314286-18.285714-18.285714v-73.142857c0-10.971429 7.314286-18.285714 18.285714-18.285714h73.142857c10.971429 0 18.285714 7.314286 18.285715 18.285714v73.142857c0 10.971429-7.314286 18.285714-18.285715 18.285714z"  horiz-adv-x="1024" />

    
    <glyph glyph-name="add" unicode="&#58968;" d="M958.976 423.424H551.424V830.976a39.424 39.424 0 1 1-78.848 0v-407.552H65.024a39.424 39.424 0 1 1 0-78.848h407.552v-407.552a39.424 39.424 0 1 1 78.848 0V344.576h407.552a39.424 39.424 0 1 1 0 78.848z"  horiz-adv-x="1024" />

    
    <glyph glyph-name="bad-s" unicode="&#58969;" d="M851.456 251.904H650.24c21.504-60.672 39.68-84.224 39.68-186.624C691.2-2.56 648.96-76.8 563.2-76.8c-75.52 0-105.472 41.728-128 131.328a286.464 286.464 0 0 1-148.992 186.368V844.8H716.8c43.776 0 96-14.08 167.68-98.816 43.52-51.2 100.608-216.576 100.608-362.24a132.352 132.352 0 0 0-133.632-131.84zM105.472 251.904a68.608 68.608 0 0 0-67.072 65.792v460.8A64.256 64.256 0 0 0 105.472 844.8h103.68v-592.896z"  horiz-adv-x="1024" />

    
    <glyph glyph-name="bad" unicode="&#58972;" d="M884.992 745.984C813.312 830.72 761.088 844.8 716.8 844.8H105.472A64.256 64.256 0 0 1 38.4 779.008v-460.8a68.608 68.608 0 0 1 67.072-65.792h133.12c68.864 0 164.864-80.128 196.352-197.376 22.016-89.6 51.2-131.328 128-131.328 86.528 0 128 74.24 128 142.08 0 102.4-18.176 125.952-39.68 186.624h201.216A132.352 132.352 0 0 1 985.6 384c0 145.408-57.088 310.272-100.608 361.984zM115.2 768h93.952v-439.296H115.2z m736.256-439.296H650.24a76.8 76.8 0 0 1-72.448-102.4c4.096-11.776 8.192-22.272 12.288-32.256a279.04 279.04 0 0 0 23.04-128c0-6.656-1.536-65.28-51.2-65.28-24.064 0-35.072 0-52.992 72.96v1.536c-32.768 122.624-125.44 222.208-222.976 247.808V768H716.8c15.616 0 48.384 0 109.056-71.68 28.928-34.304 82.432-179.2 82.432-312.576a55.296 55.296 0 0 0-56.832-55.04z"  horiz-adv-x="1024" />

    
    <glyph glyph-name="cart" unicode="&#58973;" d="M844.8 716.8H188.416C172.8 797.696 138.752 864.512 38.4 864.512a38.4 38.4 0 0 1 0-76.8c37.632 0 67.584 0 82.688-145.152C132.096 537.6 148.224 295.424 153.6 227.328a171.008 171.008 0 0 1 84.48-321.024 172.288 172.288 0 0 1 171.52 150.784h376.576a189.952 189.952 0 0 1 191.744 156.928c0 8.192 3.584 23.552 6.912 43.52A2860.032 2860.032 0 0 1 1024 582.912C1024 716.8 907.008 716.8 844.8 716.8zM237.312-16.896A94.72 94.72 0 1 0 332.8 76.8a95.744 95.744 0 0 0-95.488-93.696zM908.8 269.568c-3.328-20.48-5.632-36.352-6.912-45.056a112.896 112.896 0 0 0-115.712-90.624H400.64a173.056 173.056 0 0 1-163.328 115.2h-8.96C222.976 330.496 208.896 534.528 198.656 640H844.8c86.784 0 102.4-8.96 102.4-56.576a2824.704 2824.704 0 0 0-38.4-313.856zM881.664 54.784a75.264 75.264 0 1 1 76.8-75.264 76.8 76.8 0 0 1-76.8 75.264z"  horiz-adv-x="1024" />

    
    <glyph glyph-name="call" unicode="&#58974;" d="M246.061615 817.921366c15.103736 0 32.255436-16.639709 44.031229-31.231453l102.398208-134.141653a9.983825 9.983825 0 0 1 2.047964-2.559955 41.983265 41.983265 0 0 0-2.559955-57.598992l-53.247068-51.199104a76.798656 76.798656 0 0 1-12.031789-94.974338 895.98432 895.98432 0 0 1 244.987712-246.011695 76.798656 76.798656 0 0 1 40.191297-11.263802 76.798656 76.798656 0 0 1 51.199104 18.687673l61.69492 53.503063 4.095929 3.839933a41.471274 41.471274 0 0 0 57.598992 3.583937l3.839932-3.327941 145.917447-106.494137a42.751252 42.751252 0 0 0 11.263803-25.599552 56.063019 56.063019 0 0 0-11.263803-40.959283L844.835136-14.320069A132.605679 132.605679 0 0 0 750.628785-51.183424c-70.654764 0-198.908519 43.519238-409.592832 251.131605C97.584213 441.863947 75.056607 595.97325 76.848576 651.012287a90.622414 90.622414 0 0 0 22.527606 64.254876C135.983541 744.962643 195.118506 793.601792 200.238417 796.673738a89.086441 89.086441 0 0 0 45.823198 21.247628m0 76.798656A156.413263 156.413263 0 0 1 153.647232 858.368659l-103.934181-84.478522C-41.165359 695.043517-31.94952 460.807616 288.04488 145.421135 491.305323-55.791344 641.318698-127.98208 750.628785-127.98208a209.660331 209.660331 0 0 1 150.26937 60.670938l92.670378 108.286105a127.99776 127.99776 0 0 1-11.775793 179.196864l-147.197425 106.750132a117.757939 117.757939 0 0 1-76.798656 27.903512 120.57389 120.57389 0 0 1-85.246508-36.095369l-61.69492-53.503063A819.185664 819.185664 0 0 0 391.979061 486.407168l53.247068 51.199104a119.037917 119.037917 0 0 1 7.935862 161.789169l-102.398208 135.165634C316.716378 875.776354 281.644992 894.720022 246.061615 894.720022z"  horiz-adv-x="1024" />

    
    <glyph glyph-name="Change" unicode="&#58975;" d="M985.582506 422.390231A38.399318 38.399318 0 0 1 947.183187 383.990912 435.192275 435.192275 0 1 0 511.990912 819.183187a431.096348 431.096348 0 0 0 303.610611-123.389809l-55.039023-31.743437a17.919682 17.919682 0 0 1 2.81595-32.255427l162.81311-61.43891a17.919682 17.919682 0 0 1 24.063573 14.07975l25.599546 169.724988a17.919682 17.919682 0 0 1-25.599546 18.175677l-63.998864-36.863346A506.615008 506.615008 0 0 1 511.990912 895.981824a511.990912 511.990912 0 1 1 511.990912-511.990912 38.399318 38.399318 0 0 1-38.399318 38.399319z"  horiz-adv-x="1024" />

    
    <glyph glyph-name="check" unicode="&#58976;" d="M377.320448 0a38.912 38.912 0 0 0-25.6 10.496L14.056448 328.448A38.4 38.4 0 1 0 66.792448 384l307.2-290.56L958.952448 754.944a38.144 38.144 0 0 0 57.344-51.2l-610.048-691.2a38.144 38.144 0 0 0-27.136-13.056z"  horiz-adv-x="1026" />

    
    <glyph glyph-name="checkr-n" unicode="&#58977;" d="M512 844.8A460.8 460.8 0 1 0 51.2 384 460.8 460.8 0 0 0 512 844.8m0 51.2a512 512 0 1 1 512-512A512 512 0 0 1 512 896z"  horiz-adv-x="1024" />

    
    <glyph glyph-name="checkl" unicode="&#58978;" d="M512 819.2A435.2 435.2 0 1 0 76.8 384 435.2 435.2 0 0 0 512 819.2m0 76.8a512 512 0 1 1 512-512A512 512 0 0 1 512 896zM432.64 156.928h-2.816a37.376 37.376 0 0 0-25.6 13.824L246.528 358.4a38.4 38.4 0 0 0 59.136 51.2l131.328-158.208 329.472 289.536a38.656 38.656 0 0 0 51.2-57.856l-358.4-316.416a39.424 39.424 0 0 0-26.624-9.728z"  horiz-adv-x="1024" />

    
    <glyph glyph-name="close" unicode="&#58979;" d="M568.064 384L935.68 751.616a39.68 39.68 0 0 1-56.064 56.064L512 440.064 144.384 807.68a39.68 39.68 0 0 1-56.064-56.064L455.936 384 88.32 16.384a39.68 39.68 0 0 1 56.064-56.064L512 327.936l367.616-367.616a39.68 39.68 0 0 1 56.064 56.064z"  horiz-adv-x="1024" />

    
    <glyph glyph-name="collect" unicode="&#58980;" d="M873.272576 144.128H579.128576a38.4 38.4 0 0 0 0 76.8h294.144a38.4 38.4 0 0 0 0-76.8zM726.328576-3.072a38.4 38.4 0 0 0-38.4 38.4v294.4a38.4 38.4 0 0 0 76.8 0v-294.4a38.4 38.4 0 0 0-38.4-38.4zM512.056576-80.64a37.888 37.888 0 0 0-23.04 7.68c-7.936 5.888-194.56 146.688-302.336 245.504C24.120576 321.792 0.056576 452.352 0.056576 516.608a348.928 348.928 0 0 0 90.368 240.64 305.152 305.152 0 0 0 220.416 91.392 335.104 335.104 0 0 0 201.216-76.8 344.32 344.32 0 0 0 204.8 76.8 318.976 318.976 0 0 0 217.088-91.392A349.44 349.44 0 0 0 1024.056576 512a353.024 353.024 0 0 0-60.416-184.832 38.4 38.4 0 1 0-65.28 40.704A279.552 279.552 0 0 1 947.256576 512a272.128 272.128 0 0 1-68.864 192A241.664 241.664 0 0 1 716.856576 771.84a281.6 281.6 0 0 1-177.152-76.8 38.144 38.144 0 0 0-27.648-11.776 38.144 38.144 0 0 0-27.392 11.52s-76.8 76.8-173.568 76.8A228.608 228.608 0 0 1 145.720576 704 272.896 272.896 0 0 1 76.856576 516.608c0-41.728 15.616-153.6 161.792-287.488 83.456-76.8 219.648-182.016 273.664-223.232l40.192 30.72A38.4 38.4 0 0 0 599.352576-25.6c-38.4-29.44-64.512-48.896-64.512-48.896a39.168 39.168 0 0 0-22.784-6.144z"  horiz-adv-x="1024" />

    
    <glyph glyph-name="clear" unicode="&#58981;" d="M924.16 747.52zM985.6 747.52h-947.2C17.92 747.52 0 729.6 0 709.12s17.92-38.4 38.4-38.4h66.56v-691.2c0-58.88 46.08-107.52 102.4-107.52H819.2c58.88 0 104.96 48.64 104.96 107.52v691.2h61.44c20.48 0 38.4 17.92 38.4 38.4s-17.92 38.4-38.4 38.4z m-138.24-768c0-7.68-2.56-17.92-10.24-23.04-5.12-5.12-10.24-7.68-17.92-7.68H207.36c-15.36 2.56-28.16 15.36-25.6 30.72v691.2h665.6v-691.2zM396.8 819.2h230.4c20.48 0 38.4 17.92 38.4 38.4S647.68 896 627.2 896h-230.4c-20.48 0-38.4-17.92-38.4-38.4S376.32 819.2 396.8 819.2zM419.84 130.55999999999995c20.48 0 38.4 17.92 38.4 38.4v281.6c0 20.48-17.92 38.4-38.4 38.4s-38.4-17.92-38.4-38.4v-281.6c0-20.48 17.92-38.4 38.4-38.4zM604.16 130.55999999999995c20.48 0 38.4 17.92 38.4 38.4v281.6c0 20.48-17.92 38.4-38.4 38.4s-38.4-17.92-38.4-38.4v-281.6c0-20.48 15.36-38.4 38.4-38.4z"  horiz-adv-x="1024" />

    
    <glyph glyph-name="empty" unicode="&#58982;" d="M512 896a512 512 0 1 1 512-512A512 512 0 0 1 512 896z m244.736-702.464a38.144 38.144 0 0 0 0-54.272 38.4 38.4 0 0 0-54.272 0L512 329.728l-190.464-190.464a38.4 38.4 0 0 0-54.272 0 38.144 38.144 0 0 0 0 54.272L457.728 384l-190.464 190.464a38.4 38.4 0 0 0 54.272 54.272L512 438.272l190.464 190.464a38.4 38.4 0 0 0 54.272-54.272L566.272 384z"  horiz-adv-x="1024" />

    
    <glyph glyph-name="edit" unicode="&#58983;" d="M985.60256-108.288H117.25056A117.248 117.248 0 0 0 0.00256 9.728v155.648a145.408 145.408 0 0 0 46.08 105.216L617.21856 825.856a149.504 149.504 0 0 0 105.728 51.2 130.816 130.816 0 0 0 102.4-46.592l4.096-4.096 79.104-78.848a148.48 148.48 0 0 0 51.2-106.24 141.568 141.568 0 0 0-49.152-104.192L460.80256 99.84a38.4 38.4 0 0 0-53.504 55.296c153.6 147.712 443.136 429.056 449.792 435.2a65.792 65.792 0 0 1 25.6 49.664 73.216 73.216 0 0 1-28.416 51.2l-84.224 84.736a55.552 55.552 0 0 1-47.104 23.552 78.336 78.336 0 0 1-51.2-28.416L100.09856 215.04a68.608 68.608 0 0 1-22.272-51.2v-155.648a40.704 40.704 0 0 1 40.448-40.704H985.60256a38.4 38.4 0 0 0 0-76.8z"  horiz-adv-x="1024" />

    
    <glyph glyph-name="customer" unicode="&#58984;" d="M512.128512 896A512 512 0 0 1 0.128512 384v-148.48a142.336 142.336 0 1 1 284.416 0V332.8a141.824 141.824 0 0 1-200.192 129.792 435.2 435.2 0 0 0 855.552 0A141.824 141.824 0 0 1 739.712512 332.8v-97.28a142.592 142.592 0 0 1 142.08-142.336 139.52 139.52 0 0 1 41.728 6.4c-35.84-72.192-119.04-93.952-290.816-99.84A76.8 76.8 0 0 1 563.328512 44.288h-102.4a76.8 76.8 0 0 1-76.8-76.8V-51.2a76.8 76.8 0 0 1 76.8-76.8h102.4a76.8 76.8 0 0 1 71.936 51.2c257.792 8.704 384 57.088 388.608 307.2v153.6A512 512 0 0 1 512.128512 896zM142.464512 398.336A65.536 65.536 0 0 0 207.744512 332.8v-97.28a65.536 65.536 0 1 0-130.816 0V332.8a65.536 65.536 0 0 0 65.536 65.536z m739.328-228.352a65.536 65.536 0 0 0-65.28 65.536V332.8A65.536 65.536 0 1 0 947.328512 332.8v-98.304a65.792 65.792 0 0 0-65.536-64.512z"  horiz-adv-x="1024" />

    
    <glyph glyph-name="dislook" unicode="&#58985;" d="M512.021504 362.24C165.909504 362.24 13.333504 574.464 6.933504 583.424a38.4 38.4 0 1 0 62.976 44.032C76.821504 619.52 207.637504 439.04 512.021504 439.04s436.736 180.736 442.112 188.672a38.4 38.4 0 0 0 62.976-44.288c-6.4-8.96-158.976-221.184-505.088-221.184zM140.821504 226.56a37.888 37.888 0 0 0-21.76 6.912 38.144 38.144 0 0 0-9.728 53.248l114.432 165.888A38.4 38.4 0 1 0 286.997504 409.6l-114.688-166.4a38.4 38.4 0 0 0-31.488-16.64zM909.333504 226.56a38.4 38.4 0 0 0-31.488 16.64L763.157504 409.6a38.4 38.4 0 1 0 63.232 43.776l114.432-165.888a38.144 38.144 0 0 0-9.728-53.248 37.888 37.888 0 0 0-21.76-7.68zM512.021504 124.16a38.4 38.4 0 0 0-38.4 38.4v217.088a38.4 38.4 0 0 0 76.8 0v-217.088a38.4 38.4 0 0 0-38.4-38.4z"  horiz-adv-x="1024" />

    
    <glyph glyph-name="comment" unicode="&#58986;" d="M512.002816-44.544a38.912 38.912 0 0 0-24.064 8.448l-128 102.4H108.034816A108.032 108.032 0 0 0 0.002816 175.104V704.512a108.288 108.288 0 0 0 108.032 108.032h807.936A108.288 108.288 0 0 0 1024.002816 704.512v-529.408a108.032 108.032 0 0 0-108.032-108.032H665.602816l-128-102.4a38.912 38.912 0 0 0-25.6-9.216zM108.034816 735.744A31.232 31.232 0 0 1 76.802816 704.512v-529.408a31.232 31.232 0 0 1 31.232-31.232h264.704a39.424 39.424 0 0 0 24.064-8.448l115.2-92.416 115.2 92.416a39.424 39.424 0 0 0 24.064 8.448h264.704A31.232 31.232 0 0 1 947.202816 175.104V704.512a31.232 31.232 0 0 1-31.232 31.232zM747.010816 401.408H276.994816a38.4 38.4 0 0 0 0 76.8h470.016a38.4 38.4 0 0 0 0-76.8z"  horiz-adv-x="1024" />

    
    <glyph glyph-name="checkr" unicode="&#58987;" d="M512 896a512 512 0 1 1 512-512A512 512 0 0 1 512 896z m305.408-412.928l-358.4-316.416a39.424 39.424 0 0 0-25.6-9.728h-2.816a37.376 37.376 0 0 0-25.6 13.824L246.528 358.4a38.4 38.4 0 0 0 59.136 51.2l131.328-158.208 329.472 289.536a38.656 38.656 0 0 0 51.2-57.856z"  horiz-adv-x="1024" />

    
    <glyph glyph-name="dontdisturb" unicode="&#58988;" d="M858.112 238.592H844.8v173.056a330.752 330.752 0 0 1-41.728 160.512L870.4 644.608a38.4 38.4 0 0 1-56.32 51.2l-56.832-61.184a336.64 336.64 0 0 1-146.944 94.976 108.8 108.8 0 0 1 14.336 53.76 112.64 112.64 0 1 1-225.28 0 110.336 110.336 0 0 1 14.336-54.016A332.8 332.8 0 0 1 179.2 411.648v-173.056h-13.312A89.088 89.088 0 0 1 76.8 149.504a89.088 89.088 0 0 1 89.088-88.832h57.6l-57.856-62.464a38.4 38.4 0 0 1 1.792-54.272 39.424 39.424 0 0 1 25.6-10.24 37.632 37.632 0 0 1 28.16 12.288l102.4 111.36a186.88 186.88 0 0 1 373.504 1.536v1.792h159.488A89.088 89.088 0 0 1 947.2 149.504a89.088 89.088 0 0 1-89.088 89.088zM512 819.2a35.84 35.84 0 1 0-35.84-35.84A35.84 35.84 0 0 0 512 819.2zM165.888 137.472a12.288 12.288 0 1 0 0 24.32H179.2a76.8 76.8 0 0 1 76.8 76.8v173.056a256 256 0 0 0 448.768 167.68l-409.6-441.856z m455.936-78.592a110.08 110.08 0 1 0-219.904 0h219.904z m236.288 78.592H399.616L747.52 512a254.464 254.464 0 0 0 20.48-100.352v-173.056a76.8 76.8 0 0 1 76.8-76.8h13.056a12.288 12.288 0 1 0 0-24.32z"  horiz-adv-x="1024" />

    
    <glyph glyph-name="good-s" unicode="&#58989;" d="M851.456 516.096H650.24c21.504 60.672 40.96 84.224 40.96 186.624C691.2 770.56 648.96 844.8 563.2 844.8c-76.8 0-106.24-41.728-128-131.328a286.464 286.464 0 0 0-148.992-186.368V-76.8H716.8c43.776 0 96 14.08 167.68 98.816 43.52 51.2 100.608 216.576 100.608 362.24a132.352 132.352 0 0 1-133.632 131.84zM105.472 516.096a68.608 68.608 0 0 1-67.072-65.792v-460.8A64.256 64.256 0 0 1 105.472-76.8h103.68V516.096z"  horiz-adv-x="1024" />

    
    <glyph glyph-name="next" unicode="&#58990;" d="M268.800182-127.999232a38.399971 38.399971 0 0 0-26.879979 66.04795L700.159859 384.000384 241.920203 830.208049a38.655971 38.655971 0 0 0 0 54.27196 38.655971 38.655971 0 0 0 54.527959 0l486.399635-473.599645A38.143971 38.143971 0 0 0 793.599789 384.000384a39.167971 39.167971 0 0 0-11.519992-27.647979l-486.399635-473.599645a39.167971 39.167971 0 0 0-26.87998-10.751992z"  horiz-adv-x="1024" />

    
    <glyph glyph-name="contrast" unicode="&#58991;" d="M512 896a512 512 0 1 1 512-512A512 512 0 0 1 512 896z m0-947.2a435.2 435.2 0 1 0 435.2 435.2 435.2 435.2 0 0 0-435.2-435.2zM431.616 247.04l-102.4-39.424a875.008 875.008 0 0 1 7.936 107.008v97.28h102.4a38.4 38.4 0 0 1 0 76.8h-102.4v119.04a38.656 38.656 0 0 1-38.656 38.4 38.4 38.4 0 0 1-38.144-38.4v-293.12A986.112 986.112 0 0 0 243.712 153.6a38.4 38.4 0 0 1 12.288-35.584 37.888 37.888 0 0 1 25.6-8.96 42.496 42.496 0 0 1 13.824 2.56l162.304 63.232a39.424 39.424 0 0 1 25.6 44.032 38.144 38.144 0 0 1-51.712 28.16zM742.4 311.04a38.4 38.4 0 0 1-38.4-38.4v-18.176a58.112 58.112 0 0 0-47.104-57.344l-71.168-7.168V358.4l160 124.16a38.4 38.4 0 1 1-47.104 60.672l-112.896-87.808v165.12a38.4 38.4 0 1 1-76.8 0v-445.696a63.232 63.232 0 0 1 62.976-63.232h6.4l87.296 9.216h2.816a135.424 135.424 0 0 1 111.872 133.376v18.176A38.4 38.4 0 0 1 742.4 311.04z"  horiz-adv-x="1024" />

    
    <glyph glyph-name="good" unicode="&#58992;" d="M851.456 516.096H650.24c21.504 60.672 40.96 84.224 40.96 186.624C691.2 770.56 648.96 844.8 563.2 844.8c-76.8 0-106.24-41.728-128-131.328-31.488-117.248-128-197.376-196.352-197.376H105.472a68.608 68.608 0 0 1-67.072-65.792v-460.8A64.256 64.256 0 0 1 105.472-76.8H716.8c43.776 0 96 14.08 167.68 98.816 43.52 51.2 100.608 216.576 100.608 362.24a132.352 132.352 0 0 1-133.632 131.84z m-736.256-76.8h93.952V0H115.2zM826.368 71.68C765.696 0 732.928 0 716.8 0H285.952V445.696c97.536 25.6 190.208 125.184 222.976 247.808v1.536C527.36 768 537.6 768 563.2 768c49.152 0 51.2-58.624 51.2-65.28a279.04 279.04 0 0 0-23.04-128c-4.096-9.984-8.192-20.48-12.288-32.256a76.8 76.8 0 0 1 72.448-102.4h201.216A55.296 55.296 0 0 0 908.8 384c0-133.12-53.504-278.016-82.432-312.32z"  horiz-adv-x="1024" />

    
    <glyph glyph-name="more" unicode="&#58993;" d="M204.8 307.2a76.8 76.8 0 0 0-54.272 22.528 80.896 80.896 0 0 0-9.472 11.52 95.744 95.744 0 0 0-7.168 13.312 92.672 92.672 0 0 0-4.352 14.336 76.8 76.8 0 0 0 20.992 69.376 70.656 70.656 0 0 0 11.776 9.472 73.472 73.472 0 0 0 13.312 7.168 92.672 92.672 0 0 0 14.336 4.352 73.728 73.728 0 0 0 29.952 0 92.672 92.672 0 0 0 14.336-4.352 95.744 95.744 0 0 0 13.312-7.168 80.896 80.896 0 0 0 11.52-9.472 76.8 76.8 0 0 0 20.992-69.376 71.168 71.168 0 0 0-4.352-14.336 93.952 93.952 0 0 0-6.912-13.312 82.688 82.688 0 0 0-9.728-11.52 80.896 80.896 0 0 0-11.52-9.472 95.744 95.744 0 0 0-13.312-7.168 92.672 92.672 0 0 0-14.336-4.352A76.8 76.8 0 0 0 204.8 307.2zM512 307.2a76.8 76.8 0 0 0-54.272 22.528 80.896 80.896 0 0 0-9.472 11.52 95.744 95.744 0 0 0-7.168 13.312 92.672 92.672 0 0 0-4.352 14.336A76.8 76.8 0 0 0 435.2 384a76.8 76.8 0 0 0 22.528 54.272 79.36 79.36 0 0 0 108.544 0A76.8 76.8 0 0 0 588.8 384a76.8 76.8 0 0 0-1.536-15.104 71.168 71.168 0 0 0-4.352-14.336 74.752 74.752 0 0 0-7.168-13.312 66.56 66.56 0 0 0-9.472-11.52A76.8 76.8 0 0 0 512 307.2zM819.2 307.2a73.216 73.216 0 0 0-14.848 1.536 92.672 92.672 0 0 0-14.336 4.352 73.472 73.472 0 0 0-13.312 7.168 70.656 70.656 0 0 0-11.776 9.472A76.8 76.8 0 0 0 742.4 384a76.8 76.8 0 0 0 1.536 15.104 92.672 92.672 0 0 0 4.352 14.336 95.744 95.744 0 0 0 7.168 13.312 80.896 80.896 0 0 0 9.472 11.52 70.656 70.656 0 0 0 11.776 9.472 73.472 73.472 0 0 0 13.312 7.168 92.672 92.672 0 0 0 14.336 4.352 73.728 73.728 0 0 0 29.952 0 92.672 92.672 0 0 0 14.336-4.352 95.744 95.744 0 0 0 13.312-7.168 80.896 80.896 0 0 0 11.52-9.472 82.688 82.688 0 0 0 9.728-11.52 93.952 93.952 0 0 0 6.912-13.312 71.168 71.168 0 0 0 4.352-14.336A76.8 76.8 0 0 0 896 384a76.8 76.8 0 0 0-22.528-54.272 80.896 80.896 0 0 0-11.52-9.472 95.744 95.744 0 0 0-13.312-7.168 92.672 92.672 0 0 0-14.336-4.352A76.8 76.8 0 0 0 819.2 307.2z"  horiz-adv-x="1024" />

    
    <glyph glyph-name="look" unicode="&#58994;" d="M512-64c-12.288 0-25.6 0-39.936 2.048l-11.264 1.28c-9.984 0-19.456 2.816-28.928 4.608l-11.52 2.304q-17.664 3.84-34.56 9.216l-10.24 3.584-4.096 1.536-19.456 7.424-17.664 7.68-18.432 9.216-3.84 2.048-10.496 5.632C98.048 108.032 6.144 360.448 2.304 371.2a37.376 37.376 0 0 0 0 25.6c3.328 9.472 85.248 230.4 263.168 355.072l9.728 6.656 2.048 1.28 4.352 3.84a429.056 429.056 0 0 0 76.8 38.4h2.816c13.312 5.12 25.6 9.472 38.656 13.056l20.224 5.376 12.288 2.304H435.2c8.448 1.792 17.152 3.072 25.6 4.096h12.544a376.32 376.32 0 0 0 79.616 0h10.24c10.752-1.28 19.712-2.816 28.416-4.352h2.56l11.52-2.304c8.192-1.792 16.128-4.096 24.064-6.4s21.504-6.656 32-10.752l7.424-2.816A420.864 420.864 0 0 0 735.744 768c4.352-2.56 8.96-5.376 13.312-8.448l8.192-5.376c179.2-123.136 261.12-346.624 264.448-356.096a38.912 38.912 0 0 0 0-25.6c-10.24-27.904-102.4-268.288-301.824-379.904l-5.12-2.56c-9.984-5.376-17.92-9.216-25.6-13.056s-9.984-4.608-15.104-6.656l-22.528-8.704h-3.584l-8.448-2.816a311.04 311.04 0 0 0-35.328-9.472l-10.752-2.304c-9.728-1.792-19.456-3.328-29.44-4.608l-11.264-1.28c-15.104-4.352-28.16-5.12-40.704-5.12zM79.616 384c20.992-51.2 105.728-237.312 260.096-324.864l7.68-4.096 4.096-2.048c5.12-2.56 10.24-5.376 15.36-7.68l14.336-6.4 16.128-5.888 4.864-2.048 6.656-2.304c9.216-2.816 18.688-5.376 28.416-7.424l9.216-1.792c7.936-1.536 15.616-2.816 23.552-3.84h9.216a311.552 311.552 0 0 1 65.536 0h9.216l23.808 3.84 8.96 1.792a262.144 262.144 0 0 1 28.672 7.68l9.728 3.328 18.688 7.168 12.544 5.376c6.656 3.072 13.568 6.656 20.224 10.24l4.096 2.048C838.656 145.152 923.392 332.8 944.384 384c-19.712 47.104-95.488 212.736-230.4 305.92l-6.656 4.352-11.008 6.912A338.688 338.688 0 0 1 640 730.368l-6.144 2.304c-8.448 3.072-17.152 6.144-25.6 8.704a186.112 186.112 0 0 1-19.712 5.12l-8.448 1.792h-3.072c-6.912 1.536-14.336 2.56-21.504 3.584h-9.984a290.56 290.56 0 0 1-65.024 0h-10.24l-20.992-3.328h-3.072l-11.008-2.048-15.36-4.096a279.296 279.296 0 0 1-31.232-10.496h-3.072a328.448 328.448 0 0 1-59.648-30.72l-2.56-1.536-4.096-2.56-9.472-6.4C174.336 595.456 99.072 431.104 79.616 384zM512 192a192 192 0 1 0 192 192 192 192 0 0 0-192-192z m0 307.2a115.2 115.2 0 1 1 115.2-115.2 115.456 115.456 0 0 1-115.2 115.2z"  horiz-adv-x="1024" />

    
    <glyph glyph-name="price" unicode="&#58995;" d="M511.67189 819.246146a434.921107 434.921107 0 0 0 434.921107-434.921106v-4.093376a414.198395 414.198395 0 0 0-85.705041-249.440046 123.05709 123.05709 0 0 1-29.67697-74.192424v-6.907571c3.070031-45.027126 36.072868-73.16908 62.679807-95.682643l4.349211-3.581703H511.67189A434.921107 434.921107 0 0 0 204.668756 691.328174a431.083568 431.083568 0 0 0 307.003134 127.917972m0 76.750784a511.67189 511.67189 0 0 1 0-1023.343781h409.337513a69.075705 69.075705 0 0 1 76.750783 52.958041c6.907571 38.375392-28.141954 65.238166-53.469712 86.984221-18.164352 15.350157-35.049524 29.67697-35.817033 42.468767a52.446369 52.446369 0 0 0 14.326813 29.932806 488.390819 488.390819 0 0 1 102.334378 295.23468V384.32504A511.67189 511.67189 0 0 1 511.67189 895.99693zM653.405004 315.249334h-102.334378v72.657409h102.334378a38.375392 38.375392 0 0 1 0 76.750783h-80.588323l97.729331 120.242895a38.375392 38.375392 0 0 1-59.609775 48.352993l-100.799362-124.080433-97.217659 125.103777a38.375392 38.375392 0 0 1-60.633119-47.32965l95.426807-122.289582h-76.750783a38.375392 38.375392 0 0 1 0-76.750783h102.334378v-72.657409h-102.334378a38.375392 38.375392 0 1 1 0-76.750783h102.334378v-80.588323a38.375392 38.375392 0 0 1 76.750783 0V238.498551h102.334378a38.375392 38.375392 0 0 1 0 76.750783z"  horiz-adv-x="1025" />

    
    <glyph glyph-name="score-s" unicode="&#58996;" d="M585.984 824.832l113.664-228.096 253.44-36.352A82.176 82.176 0 0 0 998.4 419.84l-182.784-176.128 43.264-249.856a82.432 82.432 0 0 0-119.552-86.784L512 25.6l-227.584-118.272a82.432 82.432 0 0 0-119.552 86.784l43.264 249.856L25.6 419.84a82.176 82.176 0 0 0 45.568 140.544l253.44 36.352 113.664 228.096a82.944 82.944 0 0 0 147.712 0z"  horiz-adv-x="1024" />

    
    <glyph glyph-name="note" unicode="&#58997;" d="M512 896a512 512 0 1 1 512-512A512 512 0 0 1 512 896z m22.016-800a39.168 39.168 0 0 0-26.88-11.264 36.608 36.608 0 0 0-14.848 3.072 39.424 39.424 0 0 0-12.544 8.192 36.608 36.608 0 0 0-8.192 12.544 35.584 35.584 0 0 0-3.072 14.592 38.4 38.4 0 0 0 11.264 27.136 54.016 54.016 0 0 0 5.888 4.864l6.656 3.584 7.168 2.048a37.632 37.632 0 0 0 15.104 0l7.168-2.048 6.656-3.584a35.072 35.072 0 0 0 5.632-4.864 37.632 37.632 0 0 0 0-54.272z m62.976 238.592c-27.136-25.6-51.2-48.896-51.2-70.912a38.4 38.4 0 0 0-76.8 0c0 54.784 37.632 91.136 74.24 126.208s73.472 70.912 73.472 126.208c0 0 0 90.368-107.52 90.368-98.304 0-102.4-96.512-102.4-107.52A39.424 39.424 0 0 0 367.616 460.8a38.4 38.4 0 0 0-37.632 39.168c0 63.232 40.192 182.784 179.2 182.784 134.4 0 184.32-102.4 184.32-167.168 0.512-87.552-53.504-139.264-96.512-180.992z"  horiz-adv-x="1024" />

    
    <glyph glyph-name="score" unicode="&#58998;" d="M512 793.6a5.376 5.376 0 0 0 5.376-3.072L631.04 563.2a76.8 76.8 0 0 1 57.856-41.728l253.184-36.352a5.12 5.12 0 0 0 4.864-3.84 4.352 4.352 0 0 0-1.536-5.376l-182.784-176.128a76.8 76.8 0 0 1-22.528-69.376l43.264-249.6a3.84 3.84 0 0 0 0-3.84 7.168 7.168 0 0 0-4.864-2.56 6.912 6.912 0 0 0-2.816 0l-227.584 118.272a76.8 76.8 0 0 1-70.656 0L249.088-25.6a6.912 6.912 0 0 0-2.816 0 7.168 7.168 0 0 0-4.864 2.56v3.84L283.904 230.4a76.8 76.8 0 0 1-22.528 68.608l-182.784 176.128a4.352 4.352 0 0 0-1.792 5.376 5.12 5.12 0 0 0 4.864 3.84l253.184 36.352A76.8 76.8 0 0 1 392.96 563.2l113.664 228.096A5.376 5.376 0 0 0 512 793.6m0 76.8a81.408 81.408 0 0 1-73.984-45.568l-113.664-228.096-253.44-36.352A82.176 82.176 0 0 1 25.6 419.84l182.784-176.128-43.52-249.856A82.432 82.432 0 0 1 246.272-102.4a83.968 83.968 0 0 1 38.144 9.472L512 25.6l227.584-118.272a83.968 83.968 0 0 1 38.144-9.472 82.432 82.432 0 0 1 81.408 96.256l-43.264 249.856L998.4 419.84a82.176 82.176 0 0 1-45.568 140.544l-253.44 36.352-113.408 228.096A81.408 81.408 0 0 1 512 870.4z"  horiz-adv-x="1024" />

    
    <glyph glyph-name="reduction" unicode="&#58999;" d="M870.4 545.792h-118.528a25.6 25.6 0 0 0-25.6 25.6V793.6a102.4 102.4 0 0 1-102.4 102.4h-222.976a102.4 102.4 0 0 1-102.4-102.4v-222.208a25.6 25.6 0 0 0-25.6-25.6H153.6a102.4 102.4 0 0 1-102.4-102.4V-25.6a102.4 102.4 0 0 1 102.4-102.4h716.8a102.4 102.4 0 0 1 102.4 102.4V443.392a102.4 102.4 0 0 1-102.4 102.4z m-716.8-76.8h118.016a102.4 102.4 0 0 1 102.4 102.4V793.6a25.6 25.6 0 0 0 25.6 25.6h222.208a25.6 25.6 0 0 0 25.6-25.6v-222.208a102.4 102.4 0 0 1 102.4-102.4H870.4a25.6 25.6 0 0 0 25.6-25.6v-143.872H128v143.872a25.6 25.6 0 0 0 25.6 25.6zM870.4-51.2h-88.32v97.28a38.4 38.4 0 1 1-76.8 0V-51.2H550.4v151.552a38.4 38.4 0 0 1-76.8 0V-51.2h-152.32v97.28a38.4 38.4 0 1 1-76.8 0V-51.2H153.6a25.6 25.6 0 0 0-25.6 25.6v248.32h768V-25.6a25.6 25.6 0 0 0-25.6-25.6z"  horiz-adv-x="1024" />

    
    <glyph glyph-name="prohibit" unicode="&#59000;" d="M512 104.96a42.24 42.24 0 0 0-42.24 42.24A42.24 42.24 0 1 0 512 104.96zM512-128c-170.496 0-460.8 220.16-472.576 471.04V737.536a76.8 76.8 0 0 0 48.64 73.728h2.56A1243.904 1243.904 0 0 0 512 896a1244.672 1244.672 0 0 0 421.12-83.712h2.56a76.8 76.8 0 0 0 48.64-76.8v-390.912C972.8 92.16 682.496-128 512-128zM118.016 740.608s-1.792-2.56-1.792-3.072v-392.96C125.184 132.864 387.328-51.2 512-51.2s386.816 184.064 395.776 397.312V737.536v2.56h-2.048A1188.352 1188.352 0 0 1 512 819.2 1188.352 1188.352 0 0 1 118.784 740.864zM512 276.736a42.24 42.24 0 0 0-42.24 42.24V620.8a42.24 42.24 0 1 0 84.48 0v-301.824A42.24 42.24 0 0 0 512 276.736z"  horiz-adv-x="1024" />

    
    <glyph glyph-name="risk" unicode="&#59001;" d="M512-127.999744a147.711963 147.711963 0 0 0-47.103988 7.679998c-146.431963 48.127988-209.151948 89.343978-221.183945 97.791976-176.127956 115.967971-179.199955 270.335932-179.199955 276.73593V694.27205a80.12798 80.12798 0 0 0 76.799981 79.103981c108.799973 3.839999 279.80793 87.295978 329.471917 112.639971a90.111977 90.111977 0 0 0 82.43198 0c49.663988-25.599994 219.903945-108.799973 329.215917-112.639971a80.12798 80.12798 0 0 0 76.799981-79.103981v-439.55189c0-6.911998-3.583999-161.53596-179.199955-277.50393 0 0-60.927985-45.055989-220.415945-97.535976A149.247963 149.247963 0 0 0 512-127.999744z m-225.535944 169.471958h1.28c5.887999-4.095999 60.671985-41.47199 201.21595-88.063978a73.471982 73.471982 0 0 1 46.335988 0c145.151964 47.871988 200.19195 87.295978 200.70395 87.551978 142.335964 93.695977 146.943963 210.175947 147.199963 215.295946V694.27205a4.607999 4.607999 0 0 1-3.583999 2.56c-121.59997 4.095999-293.119927 86.015978-361.47191 120.83197a13.055997 13.055997 0 0 1-12.287996 0c-68.351983-35.071991-240.63994-116.735971-361.47191-120.83197a4.607999 4.607999 0 0 1-3.583999-2.56v-439.55189c0-4.351999 4.863999-120.83197 145.663963-213.247946zM544.767992 549.376087l-96.255976-159.48796 183.039954-1.536h2.815999A28.671993 28.671993 0 0 0 662.783962 358.400134a29.951993 29.951993 0 0 0-5.887998-16.895995l-185.855954-248.575938a4.095999 4.095999 0 0 0-6.911998 4.351999l118.52797 230.399942-190.207952-1.791999A31.999992 31.999992 0 0 0 360.192038 358.400134a30.207992 30.207992 0 0 0 3.071999 13.567997v2.047999l102.399975 218.111946a44.799989 44.799989 0 0 0 81.407979-37.887991z"  horiz-adv-x="1024" />

    
    <glyph glyph-name="search" unicode="&#59002;" d="M1013.76-61.440000000000055l-153.6 153.6s0 2.56-2.56 2.56C929.28 179.20000000000005 972.8 289.28 972.8 409.6 972.8 678.4 755.2 896 486.4 896S0 678.4 0 409.6s217.6-486.4 486.4-486.4c120.32 0 230.4 43.52 314.88 117.76l2.56-2.56 153.6-153.6c7.68-7.68 17.92-10.24 28.16-10.24 10.24 0 20.48 5.12 28.16 10.24 15.36 12.8 12.8 38.4 0 53.76zM486.4 0c-225.28 0-409.6 184.32-409.6 409.6S261.12 819.2 486.4 819.2s409.6-184.32 409.6-409.6-184.32-409.6-409.6-409.6z"  horiz-adv-x="1024" />

    
    <glyph glyph-name="specialreturn" unicode="&#59003;" d="M982.528 422.656H134.912l343.04 343.296a38.4 38.4 0 0 1 0 54.784 38.656 38.656 0 0 1-54.784 0l-409.6-409.6a38.656 38.656 0 0 1 0-54.784l409.6-409.6a39.68 39.68 0 0 1 27.392-11.264 38.912 38.912 0 0 1 27.392 66.304L134.912 345.344h847.616a38.656 38.656 0 1 1 0 76.8z"  horiz-adv-x="1025" />

    
    <glyph glyph-name="time" unicode="&#59004;" d="M512 819.2A435.2 435.2 0 1 0 76.8 384 435.2 435.2 0 0 0 512 819.2m0 76.8a512 512 0 1 1 512-512A512 512 0 0 1 512 896zM665.6 193.024a37.888 37.888 0 0 0-28.16 11.776l-153.6 153.6a38.4 38.4 0 0 0-10.24 25.6V689.664a38.4 38.4 0 1 0 76.8 0v-289.792L691.2 258.56a38.144 38.144 0 0 0 0-53.76 37.12 37.12 0 0 0-25.6-11.776z"  horiz-adv-x="1024" />

    
    <glyph glyph-name="security" unicode="&#59005;" d="M512-127.999744a147.711963 147.711963 0 0 0-47.103988 7.679998c-146.431963 48.127988-209.151948 89.343978-221.183945 97.791976-176.127956 115.967971-179.199955 270.335932-179.199955 276.73593V694.27205a80.12798 80.12798 0 0 0 76.799981 79.103981c109.055973 3.839999 279.80793 87.295978 329.471917 112.639971a90.111977 90.111977 0 0 0 82.43198 0c49.663988-25.599994 219.903945-108.799973 329.215917-112.639971a80.12798 80.12798 0 0 0 76.799981-79.103981v-439.55189c0-6.911998-3.583999-161.53596-179.199955-277.50393 0 0-60.927985-45.055989-220.415945-97.535976A149.247963 149.247963 0 0 0 512-127.999744z m-225.535944 169.471958h1.28c5.631999-4.095999 60.671985-41.47199 201.21595-88.063978a75.263981 75.263981 0 0 1 46.335988 0c145.151964 48.127988 200.19195 87.551978 200.70395 87.807978 144.383964 94.975976 147.199963 213.759947 147.199963 214.783946V694.27205a4.607999 4.607999 0 0 1-3.583999 2.56c-121.59997 4.095999-293.375927 86.015978-361.47191 120.83197a13.055997 13.055997 0 0 1-12.287996 0c-68.351983-35.071991-240.38394-116.735971-361.47191-120.83197a4.607999 4.607999 0 0 1-3.583999-2.56v-439.55189c0-4.351999 4.863999-120.83197 145.663963-213.247946zM435.200019 156.928185a39.16799 39.16799 0 0 0-25.599993 11.775997L226.560071 358.400134A38.39999 38.39999 0 1 0 281.600058 409.600122l155.647961-161.02396L742.399942 539.904089a38.39999 38.39999 0 0 0 52.991987-55.807986l-332.799917-316.415921a38.39999 38.39999 0 0 0-27.391993-10.751997z"  horiz-adv-x="1024" />

    
    <glyph glyph-name="share" unicode="&#59006;" d="M511.999616-127.999232a511.999616 511.999616 0 0 0 0 1023.999232 38.399971 38.399971 0 0 0 0-76.799942 435.199674 435.199674 0 1 1 435.199674-435.199674 444.927666 444.927666 0 0 1-3.839998 58.623956 38.399971 38.399971 0 1 0 76.799943 10.239992A511.999616 511.999616 0 0 0 511.999616-127.999232zM511.999616 345.600413a38.399971 38.399971 0 0 0-38.399971 38.399971c0 254.463809 118.783911 358.399731 409.599693 358.399731a38.399971 38.399971 0 0 0 0-76.799942c-279.80779 0-332.79975-99.071926-332.799751-281.599789a38.399971 38.399971 0 0 0-38.399971-38.399971zM796.671402 561.408251A38.399971 38.399971 0 0 0 767.999424 624.384204l63.999952 76.799942L764.415427 768.000096A38.399971 38.399971 0 0 0 819.199386 822.272055l91.903931-90.879932a38.655971 38.655971 0 0 0 2.303998-51.199961l-86.271935-103.935922a38.655971 38.655971 0 0 0-30.463978-14.847989z"  horiz-adv-x="1024" />

    
    <glyph glyph-name="sitting" unicode="&#59007;" d="M654.08-106.24a104.704 104.704 0 0 0-78.848 35.328 145.152 145.152 0 0 1-64.768 42.24 145.664 145.664 0 0 1-63.744-43.776 99.584 99.584 0 0 0-75.52-33.792 91.904 91.904 0 0 0-37.888 5.632 51.2 51.2 0 0 0-9.472 3.584l-110.08 61.952a41.728 41.728 0 0 0-10.752 5.12 102.4 102.4 0 0 0-34.56 121.344 90.368 90.368 0 0 1 7.68 30.464 76.8 76.8 0 0 1-76.8 76.8h-4.608C55.04 199.936 22.528 230.4 12.032 279.808a453.376 453.376 0 0 0-12.032 102.4 544.512 544.512 0 0 0 11.264 102.4 88.064 88.064 0 0 0 83.456 81.152 76.8 76.8 0 0 1 79.36 78.08 90.368 90.368 0 0 1-7.424 29.44A100.608 100.608 0 0 0 200.448 793.6a40.448 40.448 0 0 0 12.032 5.888l116.224 65.536a32.768 32.768 0 0 0 13.824 5.376 104.448 104.448 0 0 0 30.72 4.864A108.032 108.032 0 0 0 447.744 844.8l1.792-2.048A135.168 135.168 0 0 1 512.512 803.072a143.104 143.104 0 0 1 64 39.424A100.352 100.352 0 0 0 651.776 874.24a91.136 91.136 0 0 0 37.12-5.632 33.536 33.536 0 0 0 9.728-3.84l112.896-64a43.776 43.776 0 0 0 11.008-5.12 102.4 102.4 0 0 0 34.048-121.344 88.832 88.832 0 0 1-7.68-30.464 76.8 76.8 0 0 1 76.8-78.08h4.352c39.68 0 72.192-31.232 82.688-79.872A455.168 455.168 0 0 0 1024.512 384a588.8 588.8 0 0 0-11.52-102.4 87.04 87.04 0 0 0-82.688-80.128h-4.352a76.8 76.8 0 0 1-76.8-78.08 90.368 90.368 0 0 1 7.168-29.696 100.352 100.352 0 0 0-33.536-120.064 40.448 40.448 0 0 0-12.032-5.888l-111.872-63.232a35.328 35.328 0 0 0-14.336-4.864 108.288 108.288 0 0 0-30.464-5.888z m-297.472 79.36l6.144-2.304a43.52 43.52 0 0 1 8.448 0 22.784 22.784 0 0 1 17.664 7.68l2.304 2.56c30.464 30.72 76.8 67.328 119.296 67.328 53.248 0 111.104-54.784 123.648-69.376a27.392 27.392 0 0 1 19.968-8.192 42.24 42.24 0 0 1 11.52 2.304L666.112-25.6l111.872 63.488 2.304 1.28a22.784 22.784 0 0 1 4.608 23.808 164.864 164.864 0 0 0-13.568 60.16 153.6 153.6 0 0 0 153.6 154.88h4.352a25.6 25.6 0 0 1 7.168 16.384A549.888 549.888 0 0 1 947.712 384a460.8 460.8 0 0 1-8.192 80.896 39.68 39.68 0 0 0-1.792 5.888 33.28 33.28 0 0 1-9.216 19.712h-2.56a153.6 153.6 0 0 0-153.6 154.88 167.424 167.424 0 0 0 14.08 61.184 25.6 25.6 0 0 1-5.376 25.6h-2.048L666.112 793.6l-6.144 2.304a42.752 42.752 0 0 1-8.448 0 25.6 25.6 0 0 1-17.408-5.632l-2.304-2.56c-6.4-6.4-64.512-62.976-119.552-62.976-51.2 0-102.4 46.848-119.808 65.536a34.304 34.304 0 0 1-19.456 5.632 31.232 31.232 0 0 1-10.752-2.304h-2.304L244.224 728.832h-2.304a22.784 22.784 0 0 1-4.608-24.064 164.608 164.608 0 0 0 13.568-59.904 153.6 153.6 0 0 0-153.6-154.88c-2.304 0-7.424-4.864-8.96-16.64a73.216 73.216 0 0 0-1.792-7.168A492.544 492.544 0 0 1 77.312 382.72a460.8 460.8 0 0 1 8.192-80.896 39.68 39.68 0 0 0 1.792-5.888 32 32 0 0 1 9.216-19.456h2.56a153.6 153.6 0 0 0 153.6-153.6 163.84 163.84 0 0 0-14.08-60.928 25.6 25.6 0 0 1 5.376-25.6h2.048zM77.312 315.136z m0 0z m0 0z m870.4 135.68z m0 0z m0 0zM349.696 831.488z m160.768-659.712a211.2 211.2 0 1 0 209.92 210.944 210.688 210.688 0 0 0-209.92-210.944z m0 345.344a134.4 134.4 0 1 1 133.12-134.4 133.888 133.888 0 0 1-133.12 134.4z"  horiz-adv-x="1024" />

    
    <glyph glyph-name="tips" unicode="&#59008;" d="M512-128a512 512 0 1 0 512 512 512 512 0 0 0-512-512z m0 947.2a435.2 435.2 0 1 1 435.2-435.2A435.2 435.2 0 0 1 512 819.2zM512 659.2a38.4 38.4 0 1 1 38.4-38.4 38.4 38.4 0 0 1-38.4 38.4zM512 70.4a38.4 38.4 0 0 0-38.4 38.4v384a38.4 38.4 0 0 0 76.8 0v-384a38.4 38.4 0 0 0-38.4-38.4z"  horiz-adv-x="1024" />

    
    <glyph glyph-name="back" unicode="&#59014;" d="M755.141828-127.999232a39.158631 39.158631 0 0 0-26.87357 10.749428l-486.283657 473.486718A39.158631 39.158631 0 0 0 230.467357 383.87830099999996a38.134876 38.134876 0 0 0 11.517244 27.385448l486.283657 473.486718a38.646754 38.646754 0 0 0 54.514957 0 38.646754 38.646754 0 0 0 0-54.259018L323.885007 383.87830099999996l458.130392-445.845331A38.390815 38.390815 0 0 0 755.141828-127.999232z"  horiz-adv-x="1024" />

    
    <glyph glyph-name="collect-s" unicode="&#59015;" d="M938.034944 748.288a307.2 307.2 0 0 1-204.8 83.712A346.88 346.88 0 0 1 512.050944 738.816S419.122944 832 294.450944 832a291.328 291.328 0 0 1-208.384-83.712A321.792 321.792 0 0 1 0.050944 523.52c0-84.224 45.056-204.8 188.416-332.8C304.946944 87.808 512.050944-64 512.050944-64s246.784 177.408 349.184 281.6C982.322944 341.504 1024.050944 435.2 1024.050944 517.888a323.328 323.328 0 0 1-86.016 230.4z"  horiz-adv-x="1024" />

    
    <glyph glyph-name="popup_ic_fail" unicode="&#59016;" d="M512-128a512 512 0 1 0 512 512 512 512 0 0 0-512-512z m0 995.555556a483.555556 483.555556 0 1 1 483.555556-483.555556A483.555556 483.555556 0 0 1 512 867.555556z m121.315556-676.067556l-122.311112 140.686222-123.164444-140.686222h-90.88l167.253333 194.56-167.253333 192.526222h92.302222l121.173334-138.88 119.466666 138.88h97.137778l-169.244444-193.123555 169.244444-193.962667h-93.724444z"  horiz-adv-x="1024" />

    
    <glyph glyph-name="popup_ic_successc" unicode="&#59017;" d="M512.053333 896A512 512 0 1 0 0 384 512 512 0 0 0 512.053333 896zM283.605333 407.637333h-74.741333L442.741333 158.826667l382.442667 453.237333h-36.362667L432.864 300.8z"  horiz-adv-x="1024" />

    
    <glyph glyph-name="popup_ic_warningc" unicode="&#59018;" d="M512.106667 896A512 512 0 1 0 0 384 512 512 0 0 0 512.106667 896zM565.333333 640H458.666667l21.333333-384h64z m-91.733333-506.325333h80.533333l-10.666666 79.658666h-62.933334z"  horiz-adv-x="1024" />

    
    <glyph glyph-name="popup_ic_success" unicode="&#59019;" d="M512 896C228.977778 896 0 667.022222 0 384s228.977778-512 512-512 512 228.977778 512 512S795.022222 896 512 896z m0-995.555556C244.622222-99.555556 28.444444 116.622222 28.444444 384S244.622222 867.555556 512 867.555556s483.555556-216.177778 483.555556-483.555556-216.177778-483.555556-483.555556-483.555556zM436.622222 297.244444l-143.644444 103.822223h-72.533334l224.711112-238.933334L812.088889 597.333333h-34.133333z"  horiz-adv-x="1024" />

    
    <glyph glyph-name="popup_ic_warning" unicode="&#59020;" d="M512-128a512 512 0 1 0 512 512 512 512 0 0 0-512-512z m0 995.555556a483.555556 483.555556 0 1 1 483.555556-483.555556A483.555556 483.555556 0 0 1 512 867.555556z m-30.72-606.407112L460.8 629.774222h102.4l-20.48-368.625778h-61.44z m60.871111-40.974222l10.24-76.458666h-77.226667l6.684445 76.458666h60.302222z"  horiz-adv-x="1024" />

    
    <glyph glyph-name="popup_ic_failc1" unicode="&#59021;" d="M512.106667-128a512 512 0 1 0 512 512 512 512 0 0 0-512-512zM736 586.666667h-101.226667L510.4 442.005333 384.106667 586.666667H288l174.293333-200.533334L288 183.466667h94.613333l128.426667 146.538666L638.4 183.466667H736L559.68 385.493333z"  horiz-adv-x="1024" />

    
    <glyph glyph-name="addressr" unicode="&#59022;" d="M866.816 658.688A387.328 387.328 0 0 1 512 896 386.56 386.56 0 0 1 157.184 658.688 380.416 380.416 0 0 1 240.64 242.688l245.76-207.36 4.608-3.84a36.352 36.352 0 0 1 40.448 0l4.608 3.84 246.784 207.36a380.16 380.16 0 0 1 83.968 416zM512 343.296a171.008 171.008 0 0 0-120.832 49.92 169.728 169.728 0 0 0 0 240.128 171.52 171.52 0 0 0 241.92 0A169.728 169.728 0 0 0 512 343.296zM512-13.056c-94.464 0-196.352-18.944-196.352-57.344 0-35.328 102.4-57.344 196.352-57.344s196.352 16.64 196.352 57.344-102.144 57.344-196.352 57.344z"  horiz-adv-x="1024" />

    
    <glyph glyph-name="addressl" unicode="&#59023;" d="M482.817744 54.26111a44.285354 44.285354 0 0 1 29.182256-10.751358 45.309293 45.309293 0 0 1 29.182256 10.751358l242.417516 209.651473A362.474342 362.474342 0 0 1 895.977057 525.784936 377.321455 377.321455 0 0 1 512 895.93882 377.321455 377.321455 0 0 1 128.022943 525.784936a362.986312 362.986312 0 0 1 112.377285-261.872353zM512 819.143408a300.782028 300.782028 0 0 0 307.181646-293.358472 288.750747 288.750747 0 0 0-87.546769-204.787764L512 130.544552l-219.634877 189.940651a287.726808 287.726808 0 0 0-87.546769 204.787764A300.782028 300.782028 0 0 0 512 819.143408zM507.392275 339.428071H512a183.797018 183.797018 0 0 1 127.992352 51.196941 179.189293 179.189293 0 0 1-127.992352 307.181646 182.26111 182.26111 0 0 1-127.992352-51.196941 177.397401 177.397401 0 0 1 0-254.448797 181.493156 181.493156 0 0 1 123.384627-52.732849z m-69.883824 251.120996A107.001607 107.001607 0 0 0 512 620.755262a103.673805 103.673805 0 0 0 104.953729-102.393882 100.601989 100.601989 0 0 0-30.718165-72.187687 107.513576 107.513576 0 0 0-74.235564-30.206195 108.28153 108.28153 0 0 0-74.491549 30.206195 100.857974 100.857974 0 0 0 0 144.375374zM743.666158 153.583175a38.397706 38.397706 0 1 1-16.639006-76.795411c40.701568-8.959465 61.436329-23.294608 61.436329-42.749446C788.463481-0.007648 691.189293-51.204589 512-51.204589S235.536519-0.007648 235.536519 35.318242c0 8.447495 0 33.789981 66.044054 45.053308a38.397706 38.397706 0 1 1-12.799236 76.795411c-113.14524-19.454838-130.04023-83.962983-130.04023-120.82478C158.741107-63.747839 297.484817-128 512-128s353.258893 64.252161 353.258893 163.318242c0 34.045966-15.871052 94.458356-121.592735 118.264933z"  horiz-adv-x="1024" />

    
    <glyph glyph-name="image" unicode="&#59024;" d="M889.856 742.4A56.576 56.576 0 0 0 947.2 686.336v-604.672A56.576 56.576 0 0 0 889.856 25.6H134.144A56.576 56.576 0 0 0 76.8 81.664V686.336A56.576 56.576 0 0 0 134.144 742.4h755.712m0 76.8H134.144A133.632 133.632 0 0 1 0 686.336v-604.672A133.632 133.632 0 0 1 134.144-51.2h755.712A133.632 133.632 0 0 1 1024 81.664V686.336A133.632 133.632 0 0 1 889.856 819.2zM185.344 104.96a40.704 40.704 0 0 0-11.008 1.536A38.4 38.4 0 0 0 148.48 153.6c6.4 22.272 67.072 216.32 204.8 216.32a241.664 241.664 0 0 0 102.4-21.76 200.192 200.192 0 0 1 88.576-17.92c42.496 0 57.088 25.6 84.48 91.136 29.44 71.424 69.888 167.424 209.92 167.424a38.4 38.4 0 0 0 0-76.8c-84.48 0-108.032-45.824-139.264-120.832-25.6-61.44-57.6-138.24-155.392-138.24a268.8 268.8 0 0 0-117.504 23.808 172.032 172.032 0 0 1-74.24 15.872c-67.84 0-118.016-119.296-130.304-161.024a38.4 38.4 0 0 0-36.608-26.624zM307.2 563.2m-76.8 0a76.8 76.8 0 1 1 153.6 0 76.8 76.8 0 1 1-153.6 0Z"  horiz-adv-x="1024" />

    
    <glyph glyph-name="download" unicode="&#59025;" d="M832-76.8h-640A192.256 192.256 0 0 0 0 115.2v153.6a38.4 38.4 0 0 0 76.8 0v-153.6A115.456 115.456 0 0 1 192 0h640a115.456 115.456 0 0 1 115.2 115.2v153.6a38.4 38.4 0 0 0 76.8 0v-153.6a192.256 192.256 0 0 0-192-192zM512 102.4a37.632 37.632 0 0 0-23.296 7.936l-332.8 256A38.4 38.4 0 0 0 179.2 435.2h140.8V806.4A38.4 38.4 0 0 0 358.4 844.8h307.2a38.4 38.4 0 0 0 38.4-38.4V435.2H844.8a38.4 38.4 0 0 0 23.296-68.864l-332.8-256A37.632 37.632 0 0 0 512 102.4z m-219.904 256L512 189.184 731.904 358.4H665.6a38.4 38.4 0 0 0-38.4 38.4V768h-230.4v-371.2A38.4 38.4 0 0 0 358.4 358.4z"  horiz-adv-x="1024" />

    
    <glyph glyph-name="remind" unicode="&#59026;" d="M926.208 102.4l-71.424 70.144V451.072a341.248 341.248 0 0 1-257.536 330.24V810.752a85.248 85.248 0 1 1-170.496 0v-29.696a341.248 341.248 0 0 1-256-329.984v-276.736L97.792 102.4A41.216 41.216 0 0 1 128 32.256h770.56A41.216 41.216 0 0 1 926.208 102.4zM563.2 109.056H213.504l10.752 10.496a76.8 76.8 0 0 1 22.784 54.784V451.072a265.472 265.472 0 0 0 530.944 0v-278.016a76.8 76.8 0 0 1 23.04-54.784l9.472-9.216zM512-128a128 128 0 0 1 128 128H384a128 128 0 0 1 128-128z"  horiz-adv-x="1024" />

    
    <glyph glyph-name="check1" unicode="&#59009;" d="M378.34592 0a47.36 47.36 0 0 0-32 13.12L15.14592 322.24a48 48 0 0 0 65.92 70.08l294.08-275.52L940.26592 752a48 48 0 1 0 71.68-64l-597.76-672a48.64 48.64 0 0 0-32-16z"  horiz-adv-x="1024" />

    
    <glyph glyph-name="call1" unicode="&#59010;" d="M246.4 800c2.24 0 12.8-4.48 28.8-24L376.96 640l2.88-3.52a22.4 22.4 0 0 0 0-32l-53.12-51.52a96 96 0 0 1-15.36-119.04 903.04 903.04 0 0 1 251.52-252.16 96 96 0 0 1 112 10.24L736 246.72l4.8 4.8a24.96 24.96 0 0 0 17.28 8 21.76 21.76 0 0 0 14.4-5.76l5.12-3.84 144.96-105.92a37.44 37.44 0 0 0-2.56-40L832 0a114.24 114.24 0 0 0-80.96-32c-54.72 0-179.2 32-394.88 245.44C109.76 457.6 96 609.92 96 650.88a76.8 76.8 0 0 0 16 50.56l99.84 80.32C234.56 800 245.12 800 246.4 800m0 96a156.8 156.8 0 0 1-91.84-37.12c-4.8-3.52-104.64-84.48-104.64-84.48C-40.96 695.68-32 462.4 288 145.92c203.2-200.96 352-273.28 462.4-273.28a209.92 209.92 0 0 1 150.4 60.48l92.48 108.48a128 128 0 0 1-11.52 178.24l-147.2 107.52a117.76 117.76 0 0 1-76.16 28.16A120.64 120.64 0 0 1 673.6 320l-61.76-54.4a809.92 809.92 0 0 0-219.52 220.8l53.12 51.52a119.04 119.04 0 0 1 8 160L352 834.88A136.32 136.32 0 0 1 246.4 896z"  horiz-adv-x="1024" />

    
    <glyph glyph-name="add1" unicode="&#59011;" d="M944 432h-384v384a48 48 0 0 1-96 0v-384h-384a48 48 0 0 1 0-96h384v-384a48 48 0 0 1 96 0v384h384a48 48 0 0 1 0 96z"  horiz-adv-x="1024" />

    
    <glyph glyph-name="Change1" unicode="&#59012;" d="M975.99329 431.99615A47.99967 47.99967 0 0 1 927.99362 383.99648 415.99714 415.99714 0 1 0 511.99648 799.99362a412.157166 412.157166 0 0 0 287.99802-116.159201l-47.039677-27.199813a15.99989 15.99989 0 0 1 2.559983-28.799802l164.478869-62.079574a15.99989 15.99989 0 0 1 21.439853 12.799912l24.959828 171.198823a15.99989 15.99989 0 0 1-23.999835 16.319888l-56.319613-31.99978A506.876515 506.876515 0 0 1 511.99648 895.99296a511.99648 511.99648 0 1 1 511.99648-511.99648 47.99967 47.99967 0 0 1-47.99967 47.99967z"  horiz-adv-x="1024" />

    
    <glyph glyph-name="bad-s1" unicode="&#59013;" d="M851.52 251.84h-201.28A405.76 405.76 0 0 0 689.92 64c0-67.84-40.96-142.08-128-142.08-75.52 0-105.28 41.92-128 131.2a285.76 285.76 0 0 1-149.76 186.88V844.8h432c44.16 0 96-14.08 167.68-98.88C928 694.4 985.6 529.28 985.6 384a132.16 132.16 0 0 0-134.08-132.16zM105.6 251.84a68.8 68.8 0 0 0-67.2 65.92V778.88A64 64 0 0 0 105.6 844.8h83.52v-592.96z"  horiz-adv-x="1024" />

    
    <glyph glyph-name="cart1" unicode="&#59027;" d="M837.12 711.68H203.2c-16.64 79.68-53.12 144-155.2 144a48 48 0 0 1 0-96c32 0 56.96 0 70.72-131.52 10.88-105.92 27.52-352 32-408.64a166.08 166.08 0 0 1-76.8-139.52 169.6 169.6 0 0 1 336-32h371.2a196.48 196.48 0 0 1 198.4 161.6c0 8 3.52 22.72 6.4 41.92a2746.56 2746.56 0 0 1 38.72 320c-0.64 140.16-126.72 140.16-187.52 140.16z m-594.24-704a70.72 70.72 0 1 0 0 141.44 70.72 70.72 0 1 0 0-141.44z m647.68 258.56c-3.2-19.84-5.76-35.2-6.72-43.52a100.16 100.16 0 0 0-103.36-79.04H398.72a169.28 169.28 0 0 1-154.24 101.44c-5.12 76.16-17.92 263.68-28.16 368.96h620.8c87.04 0 90.88-10.24 90.88-44.48a2760.96 2760.96 0 0 0-37.44-301.76zM874.24 57.6a72.96 72.96 0 1 1 74.24-72.96 73.6 73.6 0 0 1-74.24 72.96z"  horiz-adv-x="1024" />

    
    <glyph glyph-name="bad1" unicode="&#59028;" d="M884.8 745.92C813.12 832 761.28 844.8 717.12 844.8H105.6a64 64 0 0 1-67.2-65.92v-461.12a68.8 68.8 0 0 1 67.2-65.92h132.8c69.12 0 165.12-80 196.48-197.44 22.08-89.28 51.84-131.2 128-131.2 86.72 0 128 74.24 128 142.08a405.76 405.76 0 0 1-39.68 186.56h201.28A132.16 132.16 0 0 1 985.6 384c0 145.28-57.6 310.4-100.8 361.92zM134.4 748.8h64v-400.96h-64z m717.12-400.96h-201.28a96 96 0 0 1-90.56-128c4.16-11.84 8.32-22.4 12.48-32a262.4 262.4 0 0 0 21.76-121.6c0-10.88-2.24-46.08-32-46.08a56.32 56.32 0 0 0-13.12 0 152.96 152.96 0 0 0-21.12 56.96v1.92c-34.24 128-129.92 230.4-232 259.84V748.8h421.44c12.8 0 39.68 0 94.4-64 22.72-26.88 78.08-165.12 78.08-300.48a36.48 36.48 0 0 0-38.08-36.48z"  horiz-adv-x="1024" />

    
    <glyph glyph-name="back1" unicode="&#59029;" d="M752-128a47.36 47.36 0 0 0-32 13.44l-480 464a48 48 0 0 0 0 69.12l480 464a48 48 0 0 0 66.56-69.12L341.12 384l444.16-429.44a48 48 0 0 0-32-82.56z"  horiz-adv-x="1024" />

    
    <glyph glyph-name="close1" unicode="&#59030;" d="M582.4 384L945.28 746.88a49.92 49.92 0 0 1-70.4 70.4L512 454.4 149.12 817.28a49.92 49.92 0 0 1-70.4-70.4L441.6 384 78.72 21.12a49.6 49.6 0 0 1 0-70.4 48.64 48.64 0 0 1 35.2-14.72 49.6 49.6 0 0 1 35.2 14.72L512 313.6l362.88-362.88a49.6 49.6 0 0 1 35.2-14.72 48.64 48.64 0 0 1 35.2 14.72 49.6 49.6 0 0 1 0 70.4z"  horiz-adv-x="1024" />

    
    <glyph glyph-name="checkr1" unicode="&#59031;" d="M512 896a512 512 0 1 1 512-512A512 512 0 0 1 512 896z m311.68-420.16L464.64 160a48.96 48.96 0 0 0-32-11.84h-3.52a48 48 0 0 0-32 17.28L239.36 352a48 48 0 1 0 73.6 64l125.12-150.72 322.24 283.84a48 48 0 0 0 64-72z"  horiz-adv-x="1024" />

    
    <glyph glyph-name="clear1" unicode="&#59032;" d="M976 726.4H48C22.4 726.4 0 704 0 678.4s22.4-48 48-48h67.2v-656C115.2-80 160-128 217.6-128h588.8c57.6 0 102.4 48 99.2 102.4V630.4h70.4c25.6 0 48 22.4 48 48s-22.4 48-48 48z m-163.2-752c0-3.2 0-3.2-3.2-6.4H217.6s-3.2 3.2-3.2 6.4V630.4h598.4v-656zM400 800h227.2c25.6 0 44.8 22.4 44.8 48S652.8 896 624 896h-227.2c-25.6 0-44.8-22.4-44.8-48S371.2 800 400 800zM422.4 128c25.6 0 48 22.4 48 48v275.2c0 25.6-22.4 48-48 48s-48-22.4-48-48v-275.2c0-28.8 22.4-48 48-48zM601.6 128c25.6 0 48 22.4 48 48v275.2c0 25.6-22.4 48-48 48s-48-22.4-48-48v-275.2c0-28.8 22.4-48 48-48z"  horiz-adv-x="1024" />

    
    <glyph glyph-name="checkr-n1" unicode="&#59033;" d="M512 832A448 448 0 1 0 64 384 448 448 0 0 0 512 832m0 64a512 512 0 1 1 512-512A512 512 0 0 1 512 896z"  horiz-adv-x="1024" />

    
    <glyph glyph-name="collect1" unicode="&#59034;" d="M865.98368 139.2h-288a48 48 0 0 0 0 96h288a48 48 0 0 0 0-96zM721.98368-4.16a48 48 0 0 0-48 48v288a48 48 0 0 0 96 0v-288a48 48 0 0 0-48-48zM512.06368-80a48 48 0 0 0-28.8 9.6c-7.68 5.76-192 143.68-296.64 240.32C24.06368 318.08 0.06368 448 0.06368 512a352 352 0 0 0 91.52 243.52 309.44 309.44 0 0 0 224 92.48A337.28 337.28 0 0 0 512.06368 776.32a344 344 0 0 0 200.32 71.68 320 320 0 0 0 220.16-92.48A349.44 349.44 0 0 0 1024.06368 507.84a354.88 354.88 0 0 0-60.8-185.92 48 48 0 1 0-81.28 50.88A264.32 264.32 0 0 1 928.06368 508.8a256 256 0 0 1-64 180.16 224 224 0 0 1-151.04 64 266.24 266.24 0 0 1-166.08-72A47.68 47.68 0 0 0 512.06368 665.6a47.04 47.04 0 0 0-34.24 14.4A260.8 260.8 0 0 1 314.94368 752 214.08 214.08 0 0 1 160.06368 688.96 253.76 253.76 0 0 1 96.06368 512c0-39.36 14.72-144.32 155.2-272.64 78.4-71.36 204.8-169.6 261.12-212.48l32 24.96a48 48 0 1 0 58.56-76.16c-37.76-28.8-64-47.68-64-47.68a49.6 49.6 0 0 0-26.88-8z"  horiz-adv-x="1024" />

    
    <glyph glyph-name="checkl1" unicode="&#59035;" d="M512 800A416 416 0 1 0 96 384 416 416 0 0 0 512 800m0 96a512 512 0 1 1 512-512A512 512 0 0 1 512 896zM432.64 147.52h-3.52a48 48 0 0 0-32 17.28L239.04 352a48 48 0 0 0 73.92 64l125.12-150.72 322.24 283.84a48 48 0 0 0 64-72L464.32 160a47.36 47.36 0 0 0-31.68-12.48z"  horiz-adv-x="1024" />

    
    <glyph glyph-name="collect-s1" unicode="&#59036;" d="M937.96896 748.16A305.28 305.28 0 0 1 733.16896 832 346.88 346.88 0 0 1 512.04896 738.88 343.04 343.04 0 0 1 294.44896 832a290.24 290.24 0 0 1-208.32-83.84 320 320 0 0 1-86.08-224C0.04896 439.36 45.16896 320 188.52896 192 305.00896 88 512.04896-64 512.04896-64s246.72 177.28 349.12 281.92c120.96 123.52 162.88 217.92 162.88 299.84a322.56 322.56 0 0 1-86.08 230.4z"  horiz-adv-x="1024" />

    
    <glyph glyph-name="empty1" unicode="&#59037;" d="M512 896a512 512 0 1 1 512-512A512 512 0 0 1 512 896z m251.52-695.68a47.68 47.68 0 0 0 0-67.84 48 48 0 0 0-67.84 0L512 316.16l-183.68-183.68a48 48 0 0 0-67.84 0 47.68 47.68 0 0 0 0 67.84L444.16 384l-183.68 183.68a48 48 0 1 0 67.84 67.84L512 451.84l183.68 183.68a48 48 0 0 0 67.84-67.84L579.84 384z"  horiz-adv-x="1024" />

    
    <glyph glyph-name="comment1" unicode="&#59038;" d="M512-46.08a48.64 48.64 0 0 0-30.08 10.56L358.72 64H116.16A116.48 116.48 0 0 0 0 179.2V697.92a116.48 116.48 0 0 0 116.16 116.16h791.68A116.48 116.48 0 0 0 1024 697.92V179.2a116.48 116.48 0 0 0-116.16-115.2h-242.56l-123.2-98.56a48.64 48.64 0 0 0-30.08-11.52zM116.16 718.08a20.16 20.16 0 0 1-20.16-20.16V179.2a20.16 20.16 0 0 1 20.16-20.16h259.2a46.08 46.08 0 0 0 30.08-10.56L512 64l106.56 85.12a46.08 46.08 0 0 0 30.08 10.56h259.2a20.16 20.16 0 0 1 20.16 19.52V697.92a20.16 20.16 0 0 1-20.16 20.16zM742.08 390.72H281.92a48 48 0 0 0 0 96h460.16a48 48 0 1 0 0-96z"  horiz-adv-x="1024" />

    
    <glyph glyph-name="dislook1" unicode="&#59039;" d="M512.12256 352C167.48256 352 15.16256 564.48 8.76256 573.44a48 48 0 0 0 78.72 55.36C93.24256 620.48 220.28256 448 512.12256 448s419.52 173.44 424.96 180.8a48 48 0 0 0 78.4-55.36C1009.08256 564.48 856.76256 352 512.12256 352zM148.28256 219.52a47.68 47.68 0 0 0-27.2 8.32 48.32 48.32 0 0 0-12.16 66.88l112.32 162.24a48 48 0 1 0 79.04-54.4L187.96256 240a48 48 0 0 0-39.68-20.48zM901.56256 219.52a48 48 0 0 0-39.68 20.48l-112.32 162.56a48 48 0 1 0 79.04 54.4l112.32-162.24a48.32 48.32 0 0 0-12.8-66.88 47.68 47.68 0 0 0-26.56-8.32zM512.12256 119.04a48 48 0 0 0-48 48v212.48a48 48 0 0 0 96 0v-212.48a48 48 0 0 0-48-48z"  horiz-adv-x="1024" />

    
    <glyph glyph-name="dontdisturb1" unicode="&#59040;" d="M857.778062 238.825784h-13.102496v172.569458a329.160262 329.160262 0 0 1-38.668341 154.673366L874.715435 639.570414a44.74023 44.74023 0 0 1-2.556585 63.914614 44.101084 44.101084 0 0 1-63.914614-2.237012L752.638522 639.570414a334.593005 334.593005 0 0 1-142.210016 89.48046 112.489721 112.489721 0 1 1-210.918227 53.688275 110.891855 110.891855 0 0 1 14.380788-54.007848 333.634285 333.634285 0 0 1-233.927487-317.336059v-172.569458h-13.741642a89.160887 89.160887 0 0 1-88.841314-88.841314 89.48046 89.48046 0 0 1 88.841314-89.160887h48.89468L160.469623 2.980858a44.101084 44.101084 0 0 1 2.237011-63.914614 43.142364 43.142364 0 0 1 31.957307-12.143777 44.74023 44.74023 0 0 1 31.957307 14.380788l98.748079 106.417833a186.630673 186.630673 0 0 1 372.941773 10.545911v1.597865h159.786535a89.48046 89.48046 0 0 1 88.841314 89.160887 89.160887 89.160887 0 0 1-89.160887 89.800033zM512 805.74841a23.009261 23.009261 0 1 0-23.009261-23.009261 23.009261 23.009261 0 0 0 23.009261 23.009261zM182.200591 149.345324a89.160887 89.160887 0 0 1 87.243449 89.48046v172.569458A242.55596 242.55596 0 0 0 691.919639 575.6558L297.246897 149.345324zM512-37.924495a95.871921 95.871921 0 0 0-95.871921 85.32601h191.743842a97.78936 97.78936 0 0 0-95.871921-85.32601z m-92.356617 187.589392l319.57307 345.138916a239.999376 239.999376 0 0 0 15.019934-83.408571v-172.569458A89.800033 89.800033 0 0 1 831.57307 150.304043z"  horiz-adv-x="1024" />

    
    <glyph glyph-name="contrast1" unicode="&#59041;" d="M512 896a512 512 0 1 1 512-512A512 512 0 0 1 512 896z m0-928a416 416 0 1 0 416 416 416 416 0 0 0-416-416zM429.44 259.52l-83.52-32a797.76 797.76 0 0 1 6.08 88.64v84.8h90.56a48 48 0 0 1 0 96H352V599.68a48 48 0 0 1-96 0v-283.52A981.12 981.12 0 0 0 239.04 160 47.68 47.68 0 0 1 256 115.52a48.64 48.64 0 0 1 32-11.2 46.08 46.08 0 0 1 17.28 3.2l158.4 61.44a49.6 49.6 0 0 1 32 55.36 48 48 0 0 1-66.24 35.2zM737.92 322.88a48 48 0 0 1-48-48V256a46.72 46.72 0 0 0-37.12-44.8l-57.92-5.76v149.12l152.64 118.4a48 48 0 1 1-58.88 75.84l-93.76-72.96V615.68a48 48 0 0 1-96 0v-436.8a72.64 72.64 0 0 1 23.68-53.44 73.6 73.6 0 0 1 48.32-18.56h7.36l86.08 8.64h3.52A142.72 142.72 0 0 1 785.92 256v17.92a48 48 0 0 1-48 48.96z"  horiz-adv-x="1024" />

    
    <glyph glyph-name="customer1" unicode="&#59042;" d="M512.16064 896A512 512 0 0 1 0.16064 384v-149.12a142.4 142.4 0 1 1 284.48 0v96a142.72 142.72 0 0 1-142.4 142.4 147.2 147.2 0 0 1-37.44-5.76 416 416 0 0 0 814.72 0 147.2 147.2 0 0 1-37.44 5.76 142.72 142.72 0 0 1-142.4-142.4v-96A137.28 137.28 0 0 1 902.24064 96c-33.6-56.64-110.08-79.68-278.72-86.72a86.08 86.08 0 0 1-69.44 35.52h-83.84a86.08 86.08 0 0 1 0-172.16h83.84a85.76 85.76 0 0 1 72.64 40.64c273.6 10.88 391.36 67.84 396.8 317.12V384A512 512 0 0 1 512.16064 896zM142.24064 379.2a47.04 47.04 0 0 0 46.4-46.4v-96a47.04 47.04 0 0 0-46.4-46.4A47.04 47.04 0 0 0 96.16064 235.52v96a47.04 47.04 0 0 0 46.08 47.68z m739.84-190.08a47.04 47.04 0 0 0-46.4 46.4v96a46.4 46.4 0 1 0 92.48 0v-98.24a47.04 47.04 0 0 0-46.08-44.16z"  horiz-adv-x="1024" />

    
    <glyph glyph-name="edit1" unicode="&#59043;" d="M976.01984-112H125.45984a125.76 125.76 0 0 0-125.44 128v153.6a155.2 155.2 0 0 0 48.32 111.04L608.01984 827.2A160 160 0 0 0 718.73984 880 139.84 139.84 0 0 0 826.25984 832l81.28-81.92A156.16 156.16 0 0 0 960.01984 637.12a148.16 148.16 0 0 0-51.2-109.76s-4.48-4.8-441.28-431.04a48 48 0 1 0-66.88 68.8L841.61984 595.2a56 56 0 0 1 22.4 41.92 64 64 0 0 1-24.96 44.16l-76.8 77.76-2.88 2.88-2.24 2.56a45.44 45.44 0 0 1-38.4 19.52 67.84 67.84 0 0 1-43.2-24.96L115.85984 209.92A57.6 57.6 0 0 1 96.01984 167.68v-153.6a32 32 0 0 1 8.64-21.44 29.76 29.76 0 0 1 20.8-8.64H976.01984a48 48 0 0 0 0-96z"  horiz-adv-x="1024" />

    
    <glyph glyph-name="next1" unicode="&#59044;" d="M272.00015-127.99936000000002a47.99997 47.99997 0 0 0-31.99998 82.559948L682.879893 384.00032 238.720171 813.440052A47.99997 47.99997 0 0 0 305.280129 882.560008l479.9997-463.99971a47.99997 47.99997 0 0 0 0-69.119956l-479.9997-463.99971A47.35997 47.35997 0 0 0 272.00015-127.99936000000002z"  horiz-adv-x="1024" />

    
    <glyph glyph-name="good-s1" unicode="&#59045;" d="M851.52 516.16h-201.28A405.76 405.76 0 0 1 689.92 704c0 67.84-40.96 142.08-128 142.08-75.52 0-105.28-41.92-128-131.2a285.76 285.76 0 0 0-149.76-186.88v-604.8h432c44.16 0 96 14.08 167.68 98.88C928 73.6 985.6 238.72 985.6 384a132.16 132.16 0 0 1-134.08 132.16zM105.6 516.16a68.8 68.8 0 0 1-67.2-65.92v-461.12a64 64 0 0 1 67.2-65.92h83.52V516.16z"  horiz-adv-x="1024" />

    
    <glyph glyph-name="good1" unicode="&#59046;" d="M851.52 516.16h-201.28A405.76 405.76 0 0 1 689.92 704c0 67.84-40.96 142.08-128 142.08-75.52 0-105.28-41.92-128-131.2-32-117.44-128-197.44-196.48-197.44H105.6a68.8 68.8 0 0 1-67.2-65.92v-462.4a64 64 0 0 1 67.2-65.92h611.52c44.16 0 96 14.08 167.68 98.88C928 73.6 985.6 238.72 985.6 384a132.16 132.16 0 0 1-134.08 132.16z m-717.12-96h64V19.2h-64z m677.12-336.32c-54.72-64-81.6-64-94.4-64H295.68V428.8c102.08 29.44 197.76 132.8 232 259.84v1.92a152.96 152.96 0 0 0 21.12 56.96 56.32 56.32 0 0 0 13.12 0c29.44 0 32-35.2 32-46.08a262.4 262.4 0 0 0-21.76-121.6c-4.16-10.24-8.32-20.8-12.48-32a96 96 0 0 1 90.56-128h201.28A36.48 36.48 0 0 0 889.6 384c0-135.04-55.36-273.28-78.08-300.16z"  horiz-adv-x="1024" />

    
    <glyph glyph-name="look1" unicode="&#59047;" d="M512-64c-13.76 0-27.2 0-40.32 2.24h-8.96c-12.16 0-21.76 2.88-32 4.8l-11.2 2.24c-12.16 2.88-23.68 5.76-34.88 9.28l-10.24 3.52-4.16 1.6L352-32c-6.08 2.24-11.84 5.12-17.6 7.68l-18.88 9.28-3.52 1.92-10.56 5.44C97.92 107.2 6.72 357.12 2.88 367.68a47.68 47.68 0 0 0 0 32c3.52 9.28 84.8 229.44 261.76 352l8.96 6.4 2.88 1.92 4.8 2.88a441.92 441.92 0 0 0 75.2 38.72h3.52a354.88 354.88 0 0 0 38.08 12.8l20.48 5.44 12.16 2.24c11.52 2.24 20.16 3.84 28.8 4.8h12.8a473.28 473.28 0 0 0 79.68 0h12.48c8.64 0 17.6-2.56 26.56-4.16l14.08-2.88 24-6.4c10.88-2.88 21.44-6.72 32-10.56l7.04-2.88A425.92 425.92 0 0 0 736 768l13.12-8.32h2.88l5.44-3.84c177.92-122.24 259.84-343.68 263.04-352a48.64 48.64 0 0 0 0-32c-10.24-27.84-102.08-265.92-300.48-376.32l-5.76-3.2-25.92-12.8-15.36-6.72-22.4-8.64h-3.2l-8.64-3.2c-11.52-3.52-23.36-6.72-35.52-9.28l-8.32-1.6a278.4 278.4 0 0 0-32-5.12h-10.88c-12.8-8.96-26.24-8.96-40-8.96zM99.84 384c22.4-53.76 104-226.24 248.32-308.16l7.04-3.52 4.48-2.24 14.4-7.36 13.76-6.08 15.36-5.76 10.88-3.84a256 256 0 0 1 26.88-7.04h8.64l22.4-3.84 8-4.16a338.56 338.56 0 0 1 64 0h6.72c9.6 0 17.28 2.56 24.64 4.16h8.96a277.44 277.44 0 0 1 26.88 7.04l9.28 3.52 17.6 6.4 11.84 5.44c6.72 2.88 13.12 6.08 19.52 9.6l3.84 1.92c147.84 82.24 229.44 256 252.16 309.76-22.4 54.08-93.44 207.36-221.44 294.08l-4.16 2.88-12.48 7.68a300.48 300.48 0 0 1-53.44 27.2h-3.52c-10.24 4.16-18.56 6.72-26.88 9.28l-18.56 4.8-11.2 2.24c-6.72 0-13.44 2.56-20.48 3.2H544a331.84 331.84 0 0 1-61.76 0h-9.92c-6.4 0-13.12-1.92-19.84-3.2l-11.52-2.24-14.4-3.84c-11.52-3.2-21.44-6.4-32-9.92a345.28 345.28 0 0 1-59.52-30.4l-3.2-1.92-3.2-1.92A92.48 92.48 0 0 1 320 672c-128-86.08-199.36-238.08-220.16-288zM512 185.92A198.08 198.08 0 1 0 710.4 384a198.4 198.4 0 0 0-198.4-198.08z m0 300.16A102.08 102.08 0 1 1 614.4 384a102.08 102.08 0 0 1-102.4 102.08z"  horiz-adv-x="1024" />

    
    <glyph glyph-name="more1" unicode="&#59048;" d="M204.8 304a80.32 80.32 0 0 0-56.32 23.36 89.6 89.6 0 0 0-10.24 12.16 96 96 0 0 0-7.36 12.48 78.08 78.08 0 0 0-2.88 16.32 87.04 87.04 0 0 0-3.2 15.68 84.16 84.16 0 0 0 3.2 15.68 77.76 77.76 0 0 0 11.84 28.8 91.2 91.2 0 0 0 9.92 12.16 82.88 82.88 0 0 0 113.28 0 71.68 71.68 0 0 0 9.92-12.16 77.76 77.76 0 0 0 11.84-28.8 84.16 84.16 0 0 0 0-15.68 87.04 87.04 0 0 0-1.6-15.68 78.08 78.08 0 0 0-4.48-14.72 73.6 73.6 0 0 0-7.36-14.08 117.76 117.76 0 0 0-9.92-12.16 91.2 91.2 0 0 0-12.16-9.92 113.6 113.6 0 0 0-13.76-7.36 81.28 81.28 0 0 0-15.04-4.48 84.16 84.16 0 0 0-15.68-1.6zM512 304a89.92 89.92 0 0 0-15.68 1.6 78.08 78.08 0 0 0-14.72 4.48 96 96 0 0 0-14.08 7.36 117.76 117.76 0 0 0-12.16 9.92 117.76 117.76 0 0 0-9.92 12.16 113.6 113.6 0 0 0-7.36 13.76 89.28 89.28 0 0 0-4.48 15.04 77.76 77.76 0 0 0 0 32 81.28 81.28 0 0 0 4.48 15.04 113.6 113.6 0 0 0 7.36 13.76 91.2 91.2 0 0 0 9.92 12.16 80.32 80.32 0 0 0 72.32 21.76 77.76 77.76 0 0 0 28.8-11.84 91.2 91.2 0 0 0 12.16-9.92 80.32 80.32 0 0 0 0-113.28 91.2 91.2 0 0 0-12.16-9.92 113.6 113.6 0 0 0-13.76-7.36 81.28 81.28 0 0 0-15.04-4.48 84.16 84.16 0 0 0-15.68-2.24zM819.2 304a89.92 89.92 0 0 0-15.68 1.6 78.08 78.08 0 0 0-14.72 4.48 117.76 117.76 0 0 0-14.08 7.36 88.32 88.32 0 0 0-11.84 9.92 89.6 89.6 0 0 0-10.24 12.16 96 96 0 0 0-7.36 14.08 78.08 78.08 0 0 0-4.48 14.72 87.04 87.04 0 0 0 0 15.68 80.96 80.96 0 0 0 23.36 56.64 117.76 117.76 0 0 0 12.16 9.92 73.6 73.6 0 0 0 14.08 7.36 78.08 78.08 0 0 0 14.72 4.48 73.92 73.92 0 0 0 32 0 81.28 81.28 0 0 0 15.04-4.48 71.04 71.04 0 0 0 13.76-7.36 74.56 74.56 0 0 0 12.16-9.92 71.68 71.68 0 0 0 9.92-12.16 77.76 77.76 0 0 0 11.84-28.8 77.76 77.76 0 0 0 0-32 78.08 78.08 0 0 0-4.48-14.72 73.6 73.6 0 0 0-7.36-14.08 117.76 117.76 0 0 0-9.92-12.16 91.2 91.2 0 0 0-12.16-9.92 113.6 113.6 0 0 0-13.76-7.36 81.28 81.28 0 0 0-15.04-4.48 87.04 87.04 0 0 0-17.92-0.96z"  horiz-adv-x="1024" />

    
    <glyph glyph-name="note1" unicode="&#59049;" d="M512 896a512 512 0 1 1 512-512A512 512 0 0 1 512 896z m39.36-791.04a40 40 0 0 0-10.56-15.68 50.56 50.56 0 0 0-15.36-10.56 51.2 51.2 0 0 0-18.24-3.52 49.28 49.28 0 0 0-34.24 14.08 42.88 42.88 0 0 0-10.24 15.68 44.48 44.48 0 0 0-3.84 18.24 48 48 0 0 0 57.6 47.04l8.96-2.56 8.32-4.48a43.84 43.84 0 0 0 7.04-6.08 47.36 47.36 0 0 0 14.4-33.92 44.48 44.48 0 0 0-3.84-18.24z m52.16 224c-25.6-24.64-47.68-46.08-47.68-64a48 48 0 0 0-96 0c0 58.88 40.96 98.24 77.12 133.12S608 464.96 608 515.84c0 0 0 80.96-97.92 80.96-89.28 0-94.08-88-94.08-97.92a48.64 48.64 0 0 0-48.96-47.04A47.68 47.68 0 0 0 320 500.8a188.16 188.16 0 0 0 189.44 192A181.76 181.76 0 0 0 704 515.84c0-91.84-58.24-147.52-100.48-188.16z"  horiz-adv-x="1024" />

    
    <glyph glyph-name="risk1" unicode="&#59050;" d="M512-127.99104a151.358676 151.358676 0 0 0-49.279569 7.99993 887.672233 887.672233 0 0 0-218.878085 95.99916C67.523889 93.76702 64.00392 250.24565 64.00392 256.0056V688.00182a89.279219 89.279219 0 0 0 86.079247 87.99923c103.679093 3.519969 268.797648 84.479261 316.797228 109.119045a99.519129 99.519129 0 0 0 90.23921 0c47.99958-24.639784 212.478141-105.599076 316.797228-109.119045A89.599216 89.599216 0 0 0 959.99608 688.00182V256.0056c0-7.039938-3.519969-163.838566-180.798418-280.317547-3.839966-3.199972-63.99944-45.7596-217.598096-95.99916A153.278659 153.278659 0 0 0 512-127.99104z m-214.398124 184.958382a816.632854 816.632854 0 0 1 195.198292-85.75925 60.479471 60.479471 0 0 1 38.399664 0 790.393084 790.393084 0 0 1 191.99832 84.159264C859.196962 144.326577 863.99692 256.0056 863.99692 256.0056V680.321887C743.677973 687.041828 579.199412 765.76114 512 800.00084 428.800728 757.441212 275.522069 686.721831 160.00308 680.321887V256.0056c0-3.519969 5.119955-112.959012 137.598796-200.318247zM554.879625 540.483111l-88.639225-141.75876 162.558578-2.559977h4.159964a35.199692 35.199692 0 0 0 34.879694-35.51969 36.159684 36.159684 0 0 0-7.359935-21.439812l-187.518359-240.957892a5.439952 5.439952 0 0 0-7.359936 0 5.119955 5.119955 0 0 0 0 6.399944L572.159474 320.00504h-176.958452a39.679653 39.679653 0 0 0-39.99965 39.039658 39.039658 39.039658 0 0 0 3.199972 16.319858l1.599986 3.199972 95.99916 215.358115a55.99951 55.99951 0 1 0 102.399104-45.759599 67.839406 67.839406 0 0 0-3.519969-7.679933z"  horiz-adv-x="1024" />

    
    <glyph glyph-name="score-s1" unicode="&#59051;" d="M585.92 824.64l113.92-227.84 253.12-36.48a82.24 82.24 0 0 0 45.76-140.48l-183.04-176.32 43.52-249.6a82.56 82.56 0 0 0-119.68-86.72L512 25.28 284.48-92.8a82.56 82.56 0 0 0-119.68 86.72l43.52 249.6-183.04 176.32a82.24 82.24 0 0 0 45.76 140.48l253.12 36.48 113.92 227.84a82.56 82.56 0 0 0 147.84 0z"  horiz-adv-x="1024" />

    
    <glyph glyph-name="prohibit1" unicode="&#59052;" d="M512 99.2a52.8 52.8 0 0 0-52.8 52.8A52.8 52.8 0 1 0 512 99.2zM512-128c-167.36 0-453.44 220.16-464 471.36V730.56a86.08 86.08 0 0 0 53.12 81.6h2.56A1186.56 1186.56 0 0 0 512 896a1184 1184 0 0 0 407.68-82.56h2.24a87.04 87.04 0 0 0 54.08-84.8v-384C965.76 92.16 679.36-128 512-128zM144 725.76v-380.48C152.32 147.52 399.04-32 512-32s359.68 179.52 368 379.2V725.76A1103.04 1103.04 0 0 1 512 800 1100.16 1100.16 0 0 1 144 725.76z m736 4.48z m-736 1.92zM512 267.52A52.8 52.8 0 0 0 459.2 320V616a52.8 52.8 0 1 0 105.6 0V320A52.8 52.8 0 0 0 512 267.52z"  horiz-adv-x="1024" />

    
    <glyph glyph-name="reduction1" unicode="&#59053;" d="M976.958111 309.120464v134.079456A103.039581 103.039581 0 0 1 872.318536 543.99951h-118.719517a25.599896 25.599896 0 0 0-25.919895 25.599896v223.99909A103.039581 103.039581 0 0 1 623.999545 895.99808h-223.99909a103.039581 103.039581 0 0 1-103.679579-102.399584v-223.99909a25.599896 25.599896 0 0 0-25.919895-25.599896H151.681464a103.039581 103.039581 0 0 1-103.679579-102.399584v-467.198102A103.039581 103.039581 0 0 1 151.681464-127.99776h720.637072a103.039581 103.039581 0 0 1 103.679579 102.399584v238.71903zM151.681464 447.9999h118.719517a121.919505 121.919505 0 0 1 121.919505 121.599506v223.99909a7.35997 7.35997 0 0 0 7.679969 6.399974h223.99909a7.35997 7.35997 0 0 0 7.679969-6.399974v-223.99909a121.919505 121.919505 0 0 1 121.919505-121.599506h118.719517a7.35997 7.35997 0 0 0 7.679969-6.399974v-134.079455h-735.99701v135.679449a7.35997 7.35997 0 0 0 7.679969 4.79998zM879.998505-25.598176a7.35997 7.35997 0 0 0-7.679969-6.399974h-79.039679v78.079683a47.999805 47.999805 0 1 1-95.99961 0V-31.99815H559.999805v132.479462a47.999805 47.999805 0 0 1-95.99961 0V-31.99815h-134.719453v78.079683a47.999805 47.999805 0 0 1-95.99961 0V-31.99815H151.681464a7.35997 7.35997 0 0 0-7.679969 6.399974v238.71903h735.99701z"  horiz-adv-x="1024" />

    
    <glyph glyph-name="price1" unicode="&#59054;" d="M511.771462 800.042851a415.814313 415.814313 0 0 0 415.814313-415.814313v-4.158143a394.70374 394.70374 0 0 0-81.883434-237.97373 142.336438 142.336438 0 0 1-33.585002-85.082006v-8.956A127.942866 127.942866 0 0 1 850.180341-31.585775H511.771462a415.814313 415.814313 0 1 0 0 831.628626m0 95.957149a511.771462 511.771462 0 0 1 0-1023.542924h410.376741a69.409005 69.409005 0 0 1 75.486291 53.096289c6.717 38.38286-28.467288 63.971433-53.736004 86.681291-17.912001 15.353144-34.864431 29.746716-35.824002 42.541003a52.456575 52.456575 0 0 0 14.393572 30.066574A489.381461 489.381461 0 0 1 1023.542924 380.070395V384.228538A511.771462 511.771462 0 0 1 511.771462 896zM653.468186 324.735105H559.750037v53.416147h93.718149a47.978575 47.978575 0 0 1 0 95.957149h-60.453004l85.082005 104.593293A47.978575 47.978575 0 1 1 603.570468 640.114269L511.771462 524.645833 420.61217 640.114269a47.978575 47.978575 0 1 1-75.806147-59.173575l83.482719-106.832293h-58.214004a47.978575 47.978575 0 1 1 0-95.957149h93.718149v-53.416147h-93.718149a47.978575 47.978575 0 0 1 0-95.957149h93.718149v-71.00829a47.978575 47.978575 0 0 1 95.95715 0v71.00829h93.718149a47.978575 47.978575 0 0 1 0 95.957149z"  horiz-adv-x="1024" />

    
    </font>
</defs>
</svg>
